<svg xmlns="http://www.w3.org/2000/svg" xmlns:xlink="http://www.w3.org/1999/xlink" viewBox="0 0 754 754"><defs><style>.cls-1,.cls-4{fill:none;}.cls-2{opacity:0.4;}.cls-3{clip-path:url(#clip-path);}.cls-4{stroke:#2e5293;stroke-miterlimit:10;}</style><clipPath id="clip-path"><rect class="cls-1" y="156" width="377" height="442.01"/></clipPath></defs><g id="레이어_3" data-name="레이어 3"><g class="cls-2"><g class="cls-3"><line class="cls-4" x1="232.52" y1="521.15" x2="228.05" y2="525.63"/><line class="cls-4" x1="524.69" y1="228.37" x2="520.22" y2="232.85"/><line class="cls-4" x1="232.22" y1="233.15" x2="227.74" y2="228.68"/><line class="cls-4" x1="525" y1="525.32" x2="520.52" y2="520.85"/><line class="cls-4" x1="300.19" y1="188.26" x2="297.82" y2="182.4"/><line class="cls-4" x1="455.42" y1="571.65" x2="453.05" y2="565.79"/><line class="cls-4" x1="297.38" y1="564.63" x2="294.92" y2="570.45"/><line class="cls-4" x1="458.32" y1="183.6" x2="455.86" y2="189.43"/><line class="cls-4" x1="189.02" y1="297.79" x2="183.19" y2="295.32"/><line class="cls-4" x1="570.05" y1="458.73" x2="564.22" y2="456.27"/><line class="cls-4" x1="187.86" y1="453.45" x2="181.99" y2="455.83"/><line class="cls-4" x1="571.25" y1="298.23" x2="565.39" y2="300.6"/><line class="cls-4" x1="300.19" y1="188.26" x2="297.82" y2="182.4"/><line class="cls-4" x1="455.42" y1="571.65" x2="453.05" y2="565.79"/><line class="cls-4" x1="207.84" y1="491.27" x2="202.61" y2="494.82"/><line class="cls-4" x1="550.15" y1="259.09" x2="544.92" y2="262.64"/><line class="cls-4" x1="262.06" y1="208.41" x2="258.51" y2="203.18"/><line class="cls-4" x1="494.25" y1="550.73" x2="490.69" y2="545.49"/><line class="cls-4" x1="337.31" y1="177.21" x2="336.09" y2="171"/><line class="cls-4" x1="417.16" y1="583.05" x2="415.93" y2="576.85"/><line class="cls-4" x1="263.3" y1="546.24" x2="259.78" y2="551.49"/><line class="cls-4" x1="493.46" y1="202.56" x2="489.94" y2="207.82"/><line class="cls-4" x1="207.41" y1="263.71" x2="202.16" y2="260.19"/><line class="cls-4" x1="551.09" y1="493.87" x2="545.83" y2="490.35"/><line class="cls-4" x1="176.8" y1="416.34" x2="170.6" y2="417.56"/><line class="cls-4" x1="582.65" y1="336.49" x2="576.44" y2="337.71"/><line class="cls-4" x1="337.31" y1="177.21" x2="336.09" y2="171"/><line class="cls-4" x1="417.16" y1="583.05" x2="415.93" y2="576.85"/><line class="cls-4" x1="219.04" y1="506.28" x2="214.15" y2="510.29"/><line class="cls-4" x1="538.6" y1="243.66" x2="533.71" y2="247.68"/><line class="cls-4" x1="247.07" y1="219.64" x2="243.06" y2="214.75"/><line class="cls-4" x1="509.69" y1="539.2" x2="505.67" y2="534.31"/><line class="cls-4" x1="319.13" y1="181.66" x2="317.35" y2="175.59"/><line class="cls-4" x1="435.89" y1="578.46" x2="434.11" y2="572.39"/><line class="cls-4" x1="279.31" y1="555.92" x2="276.29" y2="561.48"/><line class="cls-4" x1="476.96" y1="192.58" x2="473.93" y2="198.13"/><line class="cls-4" x1="197.73" y1="279.71" x2="192.17" y2="276.69"/><line class="cls-4" x1="561.07" y1="477.36" x2="555.52" y2="474.34"/><line class="cls-4" x1="181.25" y1="434.51" x2="175.19" y2="436.3"/><line class="cls-4" x1="578.06" y1="317.76" x2="571.99" y2="319.54"/><line class="cls-4" x1="319.13" y1="181.66" x2="317.35" y2="175.59"/><line class="cls-4" x1="435.89" y1="578.46" x2="434.11" y2="572.39"/><line class="cls-4" x1="297.38" y1="564.63" x2="294.92" y2="570.45"/><line class="cls-4" x1="458.32" y1="183.6" x2="455.86" y2="189.43"/><line class="cls-4" x1="189.02" y1="297.79" x2="183.19" y2="295.32"/><line class="cls-4" x1="570.05" y1="458.73" x2="564.22" y2="456.27"/><line class="cls-4" x1="207.84" y1="491.27" x2="202.61" y2="494.82"/><line class="cls-4" x1="550.15" y1="259.09" x2="544.92" y2="262.64"/><line class="cls-4" x1="262.06" y1="208.41" x2="258.51" y2="203.18"/><line class="cls-4" x1="494.25" y1="550.73" x2="490.69" y2="545.49"/><line class="cls-4" x1="337.31" y1="177.21" x2="336.09" y2="171"/><line class="cls-4" x1="417.16" y1="583.05" x2="415.93" y2="576.85"/><line class="cls-4" x1="263.3" y1="546.24" x2="259.78" y2="551.49"/><line class="cls-4" x1="493.46" y1="202.56" x2="489.94" y2="207.82"/><line class="cls-4" x1="207.41" y1="263.71" x2="202.16" y2="260.19"/><line class="cls-4" x1="551.09" y1="493.87" x2="545.83" y2="490.35"/><line class="cls-4" x1="176.8" y1="416.34" x2="170.6" y2="417.56"/><line class="cls-4" x1="582.65" y1="336.49" x2="576.44" y2="337.71"/><line class="cls-4" x1="337.31" y1="177.21" x2="336.09" y2="171"/><line class="cls-4" x1="417.16" y1="583.05" x2="415.93" y2="576.85"/><line class="cls-4" x1="219.04" y1="506.28" x2="214.15" y2="510.29"/><line class="cls-4" x1="538.6" y1="243.66" x2="533.71" y2="247.68"/><line class="cls-4" x1="247.07" y1="219.64" x2="243.06" y2="214.75"/><line class="cls-4" x1="509.69" y1="539.2" x2="505.67" y2="534.31"/><line class="cls-4" x1="319.13" y1="181.66" x2="317.35" y2="175.59"/><line class="cls-4" x1="435.89" y1="578.46" x2="434.11" y2="572.39"/><line class="cls-4" x1="279.31" y1="555.92" x2="276.29" y2="561.48"/><line class="cls-4" x1="476.96" y1="192.58" x2="473.93" y2="198.13"/><line class="cls-4" x1="197.73" y1="279.71" x2="192.17" y2="276.69"/><line class="cls-4" x1="561.07" y1="477.36" x2="555.52" y2="474.34"/><line class="cls-4" x1="181.25" y1="434.51" x2="175.19" y2="436.3"/><line class="cls-4" x1="578.06" y1="317.76" x2="571.99" y2="319.54"/><line class="cls-4" x1="319.13" y1="181.66" x2="317.35" y2="175.59"/><line class="cls-4" x1="435.89" y1="578.46" x2="434.11" y2="572.39"/><line class="cls-4" x1="197.13" y1="473.57" x2="191.56" y2="476.57"/><line class="cls-4" x1="561.22" y1="277.29" x2="555.65" y2="280.29"/><line class="cls-4" x1="279.75" y1="197.67" x2="276.75" y2="192.1"/><line class="cls-4" x1="476.03" y1="561.76" x2="473.03" y2="556.19"/><line class="cls-4" x1="357.77" y1="174.25" x2="357.18" y2="167.95"/><line class="cls-4" x1="396.06" y1="586.1" x2="395.47" y2="579.8"/><line class="cls-4" x1="246.73" y1="533.88" x2="242.7" y2="538.75"/><line class="cls-4" x1="510.54" y1="215.31" x2="506.51" y2="220.18"/><line class="cls-4" x1="219.77" y1="247.14" x2="214.9" y2="243.1"/><line class="cls-4" x1="538.34" y1="510.95" x2="533.47" y2="506.92"/><line class="cls-4" x1="173.85" y1="395.88" x2="167.55" y2="396.47"/><line class="cls-4" x1="585.69" y1="357.59" x2="579.4" y2="358.17"/><line class="cls-4" x1="357.77" y1="174.25" x2="357.18" y2="167.95"/><line class="cls-4" x1="396.06" y1="586.1" x2="395.47" y2="579.8"/><line class="cls-4" x1="315.92" y1="571.42" x2="314.03" y2="577.46"/><line class="cls-4" x1="439.21" y1="176.6" x2="437.32" y2="182.63"/><line class="cls-4" x1="182.23" y1="316.32" x2="176.19" y2="314.44"/><line class="cls-4" x1="577.05" y1="439.61" x2="571.01" y2="437.73"/><line class="cls-4" x1="315.92" y1="571.42" x2="314.03" y2="577.46"/><line class="cls-4" x1="439.21" y1="176.6" x2="437.32" y2="182.63"/><line class="cls-4" x1="182.23" y1="316.32" x2="176.19" y2="314.44"/><line class="cls-4" x1="577.05" y1="439.61" x2="571.01" y2="437.73"/><line class="cls-4" x1="356.94" y1="579.72" x2="356.33" y2="586.02"/><line class="cls-4" x1="396.92" y1="168.04" x2="396.3" y2="174.33"/><line class="cls-4" x1="173.92" y1="357.34" x2="167.63" y2="356.73"/><line class="cls-4" x1="585.61" y1="397.32" x2="579.32" y2="396.71"/><line class="cls-4" x1="356.94" y1="579.72" x2="356.33" y2="586.02"/><line class="cls-4" x1="396.92" y1="168.04" x2="396.3" y2="174.33"/><line class="cls-4" x1="173.92" y1="357.34" x2="167.63" y2="356.73"/><line class="cls-4" x1="585.61" y1="397.32" x2="579.32" y2="396.71"/><line class="cls-4" x1="335.98" y1="576.58" x2="334.72" y2="582.78"/><line class="cls-4" x1="418.52" y1="171.27" x2="417.26" y2="177.47"/><line class="cls-4" x1="177.07" y1="336.39" x2="170.87" y2="335.13"/><line class="cls-4" x1="582.37" y1="418.92" x2="576.17" y2="417.66"/><line class="cls-4" x1="335.98" y1="576.58" x2="334.72" y2="582.78"/><line class="cls-4" x1="418.52" y1="171.27" x2="417.26" y2="177.47"/><line class="cls-4" x1="177.07" y1="336.39" x2="170.87" y2="335.13"/><line class="cls-4" x1="582.37" y1="418.92" x2="576.17" y2="417.66"/><line class="cls-4" x1="239.96" y1="528.25" x2="235.72" y2="532.95"/><line class="cls-4" x1="517.02" y1="221.13" x2="512.78" y2="225.83"/><line class="cls-4" x1="225.16" y1="240.63" x2="220.46" y2="236.39"/><line class="cls-4" x1="532.28" y1="517.69" x2="527.58" y2="513.45"/><line class="cls-4" x1="290.79" y1="192.38" x2="288.12" y2="186.64"/><line class="cls-4" x1="465.12" y1="567.47" x2="462.46" y2="561.73"/><line class="cls-4" x1="306.93" y1="568.41" x2="304.76" y2="574.35"/><line class="cls-4" x1="448.48" y1="179.76" x2="446.32" y2="185.7"/><line class="cls-4" x1="185.27" y1="307.36" x2="179.33" y2="305.19"/><line class="cls-4" x1="573.92" y1="448.91" x2="567.97" y2="446.75"/><line class="cls-4" x1="191.95" y1="462.89" x2="186.21" y2="465.55"/><line class="cls-4" x1="567.04" y1="288.55" x2="561.3" y2="291.22"/><line class="cls-4" x1="290.79" y1="192.38" x2="288.12" y2="186.64"/><line class="cls-4" x1="465.12" y1="567.47" x2="462.46" y2="561.73"/><line class="cls-4" x1="213.81" y1="499.65" x2="208.76" y2="503.46"/><line class="cls-4" x1="544" y1="250.53" x2="538.95" y2="254.34"/><line class="cls-4" x1="253.72" y1="214.42" x2="249.91" y2="209.37"/><line class="cls-4" x1="502.84" y1="544.61" x2="499.03" y2="539.56"/><line class="cls-4" x1="327.3" y1="179.47" x2="325.77" y2="173.33"/><line class="cls-4" x1="427.48" y1="580.78" x2="425.95" y2="574.64"/><line class="cls-4" x1="271.97" y1="551.75" x2="268.72" y2="557.18"/><line class="cls-4" x1="485.14" y1="197.32" x2="481.89" y2="202.74"/><line class="cls-4" x1="201.92" y1="272.4" x2="196.5" y2="269.15"/><line class="cls-4" x1="556.75" y1="484.96" x2="551.32" y2="481.71"/><line class="cls-4" x1="179.04" y1="426.38" x2="172.9" y2="427.91"/><line class="cls-4" x1="580.35" y1="326.2" x2="574.21" y2="327.73"/><line class="cls-4" x1="327.3" y1="179.47" x2="325.77" y2="173.33"/><line class="cls-4" x1="427.48" y1="580.78" x2="425.95" y2="574.64"/><line class="cls-4" x1="225.75" y1="514.07" x2="221.07" y2="518.33"/><line class="cls-4" x1="531.68" y1="235.7" x2="527" y2="239.96"/><line class="cls-4" x1="239.32" y1="226.39" x2="235.06" y2="221.71"/><line class="cls-4" x1="517.69" y1="532.32" x2="513.43" y2="527.64"/><line class="cls-4" x1="309.37" y1="184.83" x2="307.28" y2="178.86"/><line class="cls-4" x1="445.96" y1="575.25" x2="443.87" y2="569.28"/><line class="cls-4" x1="288.44" y1="560.62" x2="285.7" y2="566.32"/><line class="cls-4" x1="467.54" y1="187.78" x2="464.8" y2="193.49"/><line class="cls-4" x1="193.06" y1="288.87" x2="187.35" y2="286.13"/><line class="cls-4" x1="565.89" y1="467.97" x2="560.19" y2="465.23"/><line class="cls-4" x1="184.4" y1="444.3" x2="178.43" y2="446.39"/><line class="cls-4" x1="574.82" y1="307.71" x2="568.85" y2="309.8"/><line class="cls-4" x1="309.37" y1="184.83" x2="307.28" y2="178.86"/><line class="cls-4" x1="445.96" y1="575.25" x2="443.87" y2="569.28"/><line class="cls-4" x1="306.93" y1="568.41" x2="304.76" y2="574.35"/><line class="cls-4" x1="448.48" y1="179.76" x2="446.32" y2="185.7"/><line class="cls-4" x1="185.27" y1="307.36" x2="179.33" y2="305.19"/><line class="cls-4" x1="573.92" y1="448.91" x2="567.97" y2="446.75"/><line class="cls-4" x1="213.81" y1="499.65" x2="208.76" y2="503.46"/><line class="cls-4" x1="544" y1="250.53" x2="538.95" y2="254.34"/><line class="cls-4" x1="253.72" y1="214.42" x2="249.91" y2="209.37"/><line class="cls-4" x1="502.84" y1="544.61" x2="499.03" y2="539.56"/><line class="cls-4" x1="327.3" y1="179.47" x2="325.77" y2="173.33"/><line class="cls-4" x1="427.48" y1="580.78" x2="425.95" y2="574.64"/><line class="cls-4" x1="271.97" y1="551.75" x2="268.72" y2="557.18"/><line class="cls-4" x1="201.92" y1="272.4" x2="196.5" y2="269.15"/><line class="cls-4" x1="556.75" y1="484.96" x2="551.32" y2="481.71"/><line class="cls-4" x1="179.04" y1="426.38" x2="172.9" y2="427.91"/><line class="cls-4" x1="580.35" y1="326.2" x2="574.21" y2="327.73"/><line class="cls-4" x1="327.3" y1="179.47" x2="325.77" y2="173.33"/><line class="cls-4" x1="427.48" y1="580.78" x2="425.95" y2="574.64"/><line class="cls-4" x1="225.75" y1="514.07" x2="221.07" y2="518.33"/><line class="cls-4" x1="531.68" y1="235.7" x2="527" y2="239.96"/><line class="cls-4" x1="239.32" y1="226.39" x2="235.06" y2="221.71"/><line class="cls-4" x1="517.69" y1="532.32" x2="513.43" y2="527.64"/><line class="cls-4" x1="309.37" y1="184.83" x2="307.28" y2="178.86"/><line class="cls-4" x1="445.96" y1="575.25" x2="443.87" y2="569.28"/><line class="cls-4" x1="288.44" y1="560.62" x2="285.7" y2="566.32"/><line class="cls-4" x1="467.54" y1="187.78" x2="464.8" y2="193.49"/><line class="cls-4" x1="193.06" y1="288.87" x2="187.35" y2="286.13"/><line class="cls-4" x1="565.89" y1="467.97" x2="560.19" y2="465.23"/><line class="cls-4" x1="184.4" y1="444.3" x2="178.43" y2="446.39"/><line class="cls-4" x1="574.82" y1="307.71" x2="568.85" y2="309.8"/><line class="cls-4" x1="309.37" y1="184.83" x2="307.28" y2="178.86"/><line class="cls-4" x1="445.96" y1="575.25" x2="443.87" y2="569.28"/><line class="cls-4" x1="202.22" y1="482.51" x2="196.81" y2="485.79"/><line class="cls-4" x1="555.96" y1="268.15" x2="550.55" y2="271.42"/><line class="cls-4" x1="270.84" y1="202.8" x2="267.56" y2="197.39"/><line class="cls-4" x1="485.21" y1="556.54" x2="481.93" y2="551.13"/><line class="cls-4" x1="347.58" y1="175.49" x2="346.68" y2="169.22"/><line class="cls-4" x1="406.56" y1="584.88" x2="405.66" y2="578.62"/><line class="cls-4" x1="254.8" y1="540.24" x2="251.01" y2="545.31"/><line class="cls-4" x1="502.23" y1="208.79" x2="498.45" y2="213.86"/><line class="cls-4" x1="213.43" y1="255.23" x2="208.36" y2="251.44"/><line class="cls-4" x1="544.88" y1="502.67" x2="539.81" y2="498.88"/><line class="cls-4" x1="175.05" y1="406.09" x2="168.79" y2="407"/><line class="cls-4" x1="584.45" y1="347.11" x2="578.19" y2="348.01"/><line class="cls-4" x1="347.58" y1="175.49" x2="346.68" y2="169.22"/><line class="cls-4" x1="406.56" y1="584.88" x2="405.66" y2="578.62"/><line class="cls-4" x1="325.79" y1="574.26" x2="324.21" y2="580.38"/><line class="cls-4" x1="429.04" y1="173.73" x2="427.46" y2="179.85"/><line class="cls-4" x1="179.42" y1="326.22" x2="173.3" y2="324.64"/><line class="cls-4" x1="579.95" y1="429.47" x2="573.82" y2="427.89"/><line class="cls-4" x1="325.79" y1="574.26" x2="324.21" y2="580.38"/><line class="cls-4" x1="429.04" y1="173.73" x2="427.46" y2="179.85"/><line class="cls-4" x1="179.42" y1="326.22" x2="173.3" y2="324.64"/><line class="cls-4" x1="579.95" y1="429.47" x2="573.82" y2="427.89"/><line class="cls-4" x1="367.17" y1="580.48" x2="366.88" y2="586.8"/><line class="cls-4" x1="386.37" y1="167.3" x2="386.07" y2="173.62"/><line class="cls-4" x1="173.19" y1="367.6" x2="166.87" y2="367.31"/><line class="cls-4" x1="586.37" y1="386.8" x2="580.05" y2="386.51"/><line class="cls-4" x1="367.17" y1="580.48" x2="366.88" y2="586.8"/><line class="cls-4" x1="386.37" y1="167.3" x2="386.07" y2="173.62"/><line class="cls-4" x1="173.19" y1="367.6" x2="166.87" y2="367.31"/><line class="cls-4" x1="586.37" y1="386.8" x2="580.05" y2="386.51"/><line class="cls-4" x1="346.09" y1="578.4" x2="345.14" y2="584.65"/><line class="cls-4" x1="408.11" y1="169.45" x2="407.16" y2="175.71"/><line class="cls-4" x1="175.28" y1="346.52" x2="169.02" y2="345.57"/><line class="cls-4" x1="584.22" y1="408.54" x2="577.97" y2="407.59"/><line class="cls-4" x1="346.09" y1="578.4" x2="345.14" y2="584.65"/><line class="cls-4" x1="408.11" y1="169.45" x2="407.16" y2="175.71"/><line class="cls-4" x1="175.28" y1="346.52" x2="169.02" y2="345.57"/><line class="cls-4" x1="584.22" y1="408.54" x2="577.97" y2="407.59"/><line class="cls-4" x1="173.76" y1="387.25" x2="167.44" y2="387.57"/><line class="cls-4" x1="586.86" y1="366.43" x2="580.54" y2="366.75"/><line class="cls-4" x1="366.9" y1="173.61" x2="366.58" y2="167.29"/><line class="cls-4" x1="387.72" y1="586.71" x2="387.4" y2="580.39"/><line class="cls-4" x1="236.38" y1="524.92" x2="232.03" y2="529.51"/><line class="cls-4" x1="520.71" y1="224.53" x2="516.37" y2="229.12"/><line class="cls-4" x1="228.47" y1="237.03" x2="223.88" y2="232.68"/><line class="cls-4" x1="528.86" y1="521.36" x2="524.27" y2="517.02"/><line class="cls-4" x1="295.24" y1="190.36" x2="292.71" y2="184.56"/><line class="cls-4" x1="460.54" y1="569.52" x2="458.01" y2="563.72"/><line class="cls-4" x1="302.36" y1="566.67" x2="300.06" y2="572.56"/><line class="cls-4" x1="453.19" y1="181.52" x2="450.88" y2="187.41"/><line class="cls-4" x1="186.99" y1="302.78" x2="181.1" y2="300.48"/><line class="cls-4" x1="572.14" y1="453.61" x2="566.25" y2="451.3"/><line class="cls-4" x1="189.94" y1="458.43" x2="184.14" y2="460.95"/><line class="cls-4" x1="569.1" y1="293.13" x2="563.3" y2="295.66"/><line class="cls-4" x1="295.24" y1="190.36" x2="292.71" y2="184.56"/><line class="cls-4" x1="460.54" y1="569.52" x2="458.01" y2="563.72"/><line class="cls-4" x1="210.92" y1="495.7" x2="205.78" y2="499.39"/><line class="cls-4" x1="546.98" y1="254.56" x2="541.84" y2="258.25"/><line class="cls-4" x1="257.65" y1="211.51" x2="253.96" y2="206.37"/><line class="cls-4" x1="498.79" y1="547.57" x2="495.11" y2="542.43"/><line class="cls-4" x1="332.04" y1="178.33" x2="330.66" y2="172.16"/><line class="cls-4" x1="422.58" y1="581.92" x2="421.2" y2="575.75"/><line class="cls-4" x1="267.81" y1="549.18" x2="264.43" y2="554.53"/><line class="cls-4" x1="488.81" y1="199.55" x2="485.43" y2="204.9"/><line class="cls-4" x1="204.48" y1="268.23" x2="199.13" y2="264.85"/><line class="cls-4" x1="554.11" y1="489.23" x2="548.76" y2="485.85"/><line class="cls-4" x1="177.91" y1="421.62" x2="171.74" y2="423"/><line class="cls-4" x1="581.5" y1="331.08" x2="575.33" y2="332.46"/><line class="cls-4" x1="332.04" y1="178.33" x2="330.66" y2="172.16"/><line class="cls-4" x1="422.58" y1="581.92" x2="421.2" y2="575.75"/><line class="cls-4" x1="222.51" y1="510.41" x2="217.73" y2="514.55"/><line class="cls-4" x1="535.02" y1="239.44" x2="530.24" y2="243.58"/><line class="cls-4" x1="242.96" y1="223.13" x2="238.82" y2="218.35"/><line class="cls-4" x1="513.93" y1="535.64" x2="509.78" y2="530.86"/><line class="cls-4" x1="314" y1="183.26" x2="312.05" y2="177.24"/><line class="cls-4" x1="441.19" y1="576.84" x2="439.25" y2="570.82"/><line class="cls-4" x1="284.07" y1="558.44" x2="281.19" y2="564.08"/><line class="cls-4" x1="472.05" y1="190" x2="469.17" y2="195.64"/><line class="cls-4" x1="195.22" y1="284.49" x2="189.58" y2="281.61"/><line class="cls-4" x1="563.66" y1="472.47" x2="558.02" y2="469.59"/><line class="cls-4" x1="182.84" y1="439.67" x2="176.82" y2="441.61"/><line class="cls-4" x1="576.42" y1="312.47" x2="570.4" y2="314.41"/><line class="cls-4" x1="314" y1="183.26" x2="312.05" y2="177.24"/><line class="cls-4" x1="441.19" y1="576.84" x2="439.25" y2="570.82"/><line class="cls-4" x1="302.36" y1="566.67" x2="300.06" y2="572.56"/><line class="cls-4" x1="453.19" y1="181.52" x2="450.88" y2="187.41"/><line class="cls-4" x1="186.99" y1="302.78" x2="181.1" y2="300.48"/><line class="cls-4" x1="572.14" y1="453.61" x2="566.25" y2="451.3"/><line class="cls-4" x1="210.92" y1="495.7" x2="205.78" y2="499.39"/><line class="cls-4" x1="546.98" y1="254.56" x2="541.84" y2="258.25"/><line class="cls-4" x1="257.65" y1="211.51" x2="253.96" y2="206.37"/><line class="cls-4" x1="498.79" y1="547.57" x2="495.11" y2="542.43"/><line class="cls-4" x1="332.04" y1="178.33" x2="330.66" y2="172.16"/><line class="cls-4" x1="422.58" y1="581.92" x2="421.2" y2="575.75"/><line class="cls-4" x1="267.81" y1="549.18" x2="264.43" y2="554.53"/><line class="cls-4" x1="488.81" y1="199.55" x2="485.43" y2="204.9"/><line class="cls-4" x1="204.48" y1="268.23" x2="199.13" y2="264.85"/><line class="cls-4" x1="554.11" y1="489.23" x2="548.76" y2="485.85"/><line class="cls-4" x1="177.91" y1="421.62" x2="171.74" y2="423"/><line class="cls-4" x1="581.5" y1="331.08" x2="575.33" y2="332.46"/><line class="cls-4" x1="332.04" y1="178.33" x2="330.66" y2="172.16"/><line class="cls-4" x1="422.58" y1="581.92" x2="421.2" y2="575.75"/><line class="cls-4" x1="222.51" y1="510.41" x2="217.73" y2="514.55"/><line class="cls-4" x1="535.02" y1="239.44" x2="530.24" y2="243.58"/><line class="cls-4" x1="242.96" y1="223.13" x2="238.82" y2="218.35"/><line class="cls-4" x1="513.93" y1="535.64" x2="509.78" y2="530.86"/><line class="cls-4" x1="314" y1="183.26" x2="312.05" y2="177.24"/><line class="cls-4" x1="441.19" y1="576.84" x2="439.25" y2="570.82"/><line class="cls-4" x1="284.07" y1="558.44" x2="281.19" y2="564.08"/><line class="cls-4" x1="472.05" y1="190" x2="469.17" y2="195.64"/><line class="cls-4" x1="195.22" y1="284.49" x2="189.58" y2="281.61"/><line class="cls-4" x1="563.66" y1="472.47" x2="558.02" y2="469.59"/><line class="cls-4" x1="182.84" y1="439.67" x2="176.82" y2="441.61"/><line class="cls-4" x1="576.42" y1="312.47" x2="570.4" y2="314.41"/><line class="cls-4" x1="314" y1="183.26" x2="312.05" y2="177.24"/><line class="cls-4" x1="441.19" y1="576.84" x2="439.25" y2="570.82"/><line class="cls-4" x1="199.74" y1="478.29" x2="194.26" y2="481.44"/><line class="cls-4" x1="558.52" y1="272.46" x2="553.03" y2="275.61"/><line class="cls-4" x1="275.05" y1="200.31" x2="271.9" y2="194.82"/><line class="cls-4" x1="480.88" y1="559.08" x2="477.73" y2="553.59"/><line class="cls-4" x1="352.42" y1="174.83" x2="351.67" y2="168.55"/><line class="cls-4" x1="401.58" y1="585.53" x2="400.83" y2="579.25"/><line class="cls-4" x1="250.92" y1="537.27" x2="247.02" y2="542.24"/><line class="cls-4" x1="506.23" y1="211.84" x2="502.32" y2="216.82"/><line class="cls-4" x1="216.4" y1="251.34" x2="211.42" y2="247.44"/><line class="cls-4" x1="541.82" y1="506.65" x2="536.85" y2="502.74"/><line class="cls-4" x1="174.42" y1="401.24" x2="168.14" y2="402"/><line class="cls-4" x1="585.11" y1="352.09" x2="578.83" y2="352.84"/><line class="cls-4" x1="352.42" y1="174.83" x2="351.67" y2="168.55"/><line class="cls-4" x1="401.58" y1="585.53" x2="400.83" y2="579.25"/><line class="cls-4" x1="321.08" y1="572.97" x2="319.35" y2="579.05"/><line class="cls-4" x1="433.89" y1="175.03" x2="432.17" y2="181.11"/><line class="cls-4" x1="180.69" y1="321.49" x2="174.61" y2="319.77"/><line class="cls-4" x1="578.64" y1="434.31" x2="572.55" y2="432.59"/><line class="cls-4" x1="321.08" y1="572.97" x2="319.35" y2="579.05"/><line class="cls-4" x1="433.89" y1="175.03" x2="432.17" y2="181.11"/><line class="cls-4" x1="180.69" y1="321.49" x2="174.61" y2="319.77"/><line class="cls-4" x1="578.64" y1="434.31" x2="572.55" y2="432.59"/><line class="cls-4" x1="362.3" y1="580.19" x2="361.85" y2="586.5"/><line class="cls-4" x1="391.39" y1="167.59" x2="390.94" y2="173.9"/><line class="cls-4" x1="173.48" y1="362.72" x2="167.17" y2="362.27"/><line class="cls-4" x1="586.08" y1="391.81" x2="579.77" y2="391.36"/><line class="cls-4" x1="362.3" y1="580.19" x2="361.85" y2="586.5"/><line class="cls-4" x1="391.39" y1="167.59" x2="390.94" y2="173.9"/><line class="cls-4" x1="173.48" y1="362.72" x2="167.17" y2="362.27"/><line class="cls-4" x1="586.08" y1="391.81" x2="579.77" y2="391.36"/><line class="cls-4" x1="341.27" y1="577.6" x2="340.17" y2="583.83"/><line class="cls-4" x1="413.07" y1="170.25" x2="411.97" y2="176.48"/><line class="cls-4" x1="176.06" y1="341.69" x2="169.83" y2="340.59"/><line class="cls-4" x1="583.41" y1="413.49" x2="577.18" y2="412.39"/><line class="cls-4" x1="341.27" y1="577.6" x2="340.17" y2="583.83"/><line class="cls-4" x1="413.07" y1="170.25" x2="411.97" y2="176.48"/><line class="cls-4" x1="176.06" y1="341.69" x2="169.83" y2="340.59"/><line class="cls-4" x1="583.41" y1="413.49" x2="577.18" y2="412.39"/><line class="cls-4" x1="173.57" y1="382.38" x2="167.25" y2="382.55"/><line class="cls-4" x1="587.05" y1="371.45" x2="580.73" y2="371.62"/><line class="cls-4" x1="371.77" y1="173.42" x2="371.6" y2="167.1"/><line class="cls-4" x1="382.7" y1="586.9" x2="382.53" y2="580.58"/><line class="cls-4" x1="229.23" y1="517.78" x2="224.66" y2="522.15"/><line class="cls-4" x1="528.08" y1="231.81" x2="523.51" y2="236.19"/><line class="cls-4" x1="235.58" y1="229.84" x2="231.2" y2="225.27"/><line class="cls-4" x1="521.54" y1="528.69" x2="517.16" y2="524.12"/><line class="cls-4" x1="304.57" y1="186.54" x2="302.33" y2="180.62"/><line class="cls-4" x1="450.91" y1="573.41" x2="448.67" y2="567.49"/><line class="cls-4" x1="293.07" y1="562.74" x2="290.48" y2="568.51"/><line class="cls-4" x1="462.76" y1="185.52" x2="460.17" y2="191.29"/><line class="cls-4" x1="190.9" y1="293.47" x2="185.13" y2="290.87"/><line class="cls-4" x1="568.11" y1="463.16" x2="562.34" y2="460.56"/><line class="cls-4" x1="186.14" y1="449.07" x2="180.23" y2="451.3"/><line class="cls-4" x1="573.01" y1="302.73" x2="567.1" y2="304.96"/><line class="cls-4" x1="304.57" y1="186.54" x2="302.33" y2="180.62"/><line class="cls-4" x1="450.91" y1="573.41" x2="448.67" y2="567.49"/><line class="cls-4" x1="205.25" y1="487.33" x2="199.94" y2="490.76"/><line class="cls-4" x1="552.83" y1="263.11" x2="547.51" y2="266.54"/><line class="cls-4" x1="265.98" y1="205.8" x2="262.56" y2="200.49"/><line class="cls-4" x1="490.21" y1="553.38" x2="486.78" y2="548.07"/><line class="cls-4" x1="341.93" y1="176.34" x2="340.85" y2="170.11"/><line class="cls-4" x1="412.39" y1="583.92" x2="411.31" y2="577.69"/><line class="cls-4" x1="259.43" y1="543.56" x2="255.79" y2="548.74"/><line class="cls-4" x1="497.45" y1="205.29" x2="493.81" y2="210.46"/><line class="cls-4" x1="210.07" y1="259.82" x2="204.9" y2="256.18"/><line class="cls-4" x1="548.34" y1="497.85" x2="543.17" y2="494.21"/><line class="cls-4" x1="175.95" y1="411.71" x2="169.71" y2="412.79"/><line class="cls-4" x1="583.53" y1="341.24" x2="577.29" y2="342.32"/><line class="cls-4" x1="341.93" y1="176.34" x2="340.85" y2="170.11"/><line class="cls-4" x1="412.39" y1="583.92" x2="411.31" y2="577.69"/><line class="cls-4" x1="216.1" y1="502.59" x2="211.12" y2="506.5"/><line class="cls-4" x1="541.63" y1="247.42" x2="536.65" y2="251.32"/><line class="cls-4" x1="250.74" y1="216.68" x2="246.84" y2="211.7"/><line class="cls-4" x1="505.91" y1="542.21" x2="502.01" y2="537.23"/><line class="cls-4" x1="323.66" y1="180.37" x2="322.01" y2="174.27"/><line class="cls-4" x1="431.23" y1="579.76" x2="429.58" y2="573.66"/><line class="cls-4" x1="275.21" y1="553.62" x2="272.06" y2="559.1"/><line class="cls-4" x1="481.18" y1="194.93" x2="478.03" y2="200.41"/><line class="cls-4" x1="200.02" y1="275.6" x2="194.53" y2="272.45"/><line class="cls-4" x1="558.71" y1="481.58" x2="553.22" y2="478.43"/><line class="cls-4" x1="179.98" y1="429.98" x2="173.87" y2="431.62"/><line class="cls-4" x1="579.37" y1="322.41" x2="573.26" y2="324.05"/><line class="cls-4" x1="323.66" y1="180.37" x2="322.01" y2="174.27"/><line class="cls-4" x1="431.23" y1="579.76" x2="429.58" y2="573.66"/><line class="cls-4" x1="293.07" y1="562.74" x2="290.48" y2="568.51"/><line class="cls-4" x1="462.76" y1="185.52" x2="460.17" y2="191.29"/><line class="cls-4" x1="190.9" y1="293.47" x2="185.13" y2="290.87"/><line class="cls-4" x1="568.11" y1="463.16" x2="562.34" y2="460.56"/><line class="cls-4" x1="205.25" y1="487.33" x2="199.94" y2="490.76"/><line class="cls-4" x1="552.83" y1="263.11" x2="547.51" y2="266.54"/><line class="cls-4" x1="265.98" y1="205.8" x2="262.56" y2="200.49"/><line class="cls-4" x1="490.21" y1="553.38" x2="486.78" y2="548.07"/><line class="cls-4" x1="341.93" y1="176.34" x2="340.85" y2="170.11"/><line class="cls-4" x1="412.39" y1="583.92" x2="411.31" y2="577.69"/><line class="cls-4" x1="259.43" y1="543.56" x2="255.79" y2="548.74"/><line class="cls-4" x1="497.45" y1="205.29" x2="493.81" y2="210.46"/><line class="cls-4" x1="210.07" y1="259.82" x2="204.9" y2="256.18"/><line class="cls-4" x1="548.34" y1="497.85" x2="543.17" y2="494.21"/><line class="cls-4" x1="175.95" y1="411.71" x2="169.71" y2="412.79"/><line class="cls-4" x1="583.53" y1="341.24" x2="577.29" y2="342.32"/><line class="cls-4" x1="341.93" y1="176.34" x2="340.85" y2="170.11"/><line class="cls-4" x1="412.39" y1="583.92" x2="411.31" y2="577.69"/><line class="cls-4" x1="216.1" y1="502.59" x2="211.12" y2="506.5"/><line class="cls-4" x1="541.63" y1="247.42" x2="536.65" y2="251.32"/><line class="cls-4" x1="250.74" y1="216.68" x2="246.84" y2="211.7"/><line class="cls-4" x1="505.91" y1="542.21" x2="502.01" y2="537.23"/><line class="cls-4" x1="323.66" y1="180.37" x2="322.01" y2="174.27"/><line class="cls-4" x1="431.23" y1="579.76" x2="429.58" y2="573.66"/><line class="cls-4" x1="275.21" y1="553.62" x2="272.06" y2="559.1"/><line class="cls-4" x1="481.18" y1="194.93" x2="478.03" y2="200.41"/><line class="cls-4" x1="200.02" y1="275.6" x2="194.53" y2="272.45"/><line class="cls-4" x1="558.71" y1="481.58" x2="553.22" y2="478.43"/><line class="cls-4" x1="179.98" y1="429.98" x2="173.87" y2="431.62"/><line class="cls-4" x1="579.37" y1="322.41" x2="573.26" y2="324.05"/><line class="cls-4" x1="323.66" y1="180.37" x2="322.01" y2="174.27"/><line class="cls-4" x1="431.23" y1="579.76" x2="429.58" y2="573.66"/><line class="cls-4" x1="194.95" y1="469.39" x2="189.31" y2="472.26"/><line class="cls-4" x1="563.47" y1="281.56" x2="557.83" y2="284.43"/><line class="cls-4" x1="283.91" y1="195.47" x2="281.04" y2="189.84"/><line class="cls-4" x1="471.74" y1="563.99" x2="468.87" y2="558.35"/><line class="cls-4" x1="362.45" y1="173.86" x2="362.01" y2="167.55"/><line class="cls-4" x1="391.23" y1="586.48" x2="390.79" y2="580.17"/><line class="cls-4" x1="243.15" y1="530.83" x2="239" y2="535.6"/><line class="cls-4" x1="514.24" y1="218.43" x2="510.09" y2="223.2"/><line class="cls-4" x1="222.81" y1="243.54" x2="218.03" y2="239.4"/><line class="cls-4" x1="535.21" y1="514.63" x2="530.43" y2="510.49"/><line class="cls-4" x1="173.46" y1="391.19" x2="167.15" y2="391.63"/><line class="cls-4" x1="586.09" y1="362.4" x2="579.78" y2="362.84"/><line class="cls-4" x1="362.45" y1="173.86" x2="362.01" y2="167.55"/><line class="cls-4" x1="391.23" y1="586.48" x2="390.79" y2="580.17"/><line class="cls-4" x1="311.45" y1="569.95" x2="309.43" y2="575.95"/><line class="cls-4" x1="443.81" y1="178.08" x2="441.79" y2="184.07"/><line class="cls-4" x1="183.68" y1="311.84" x2="177.69" y2="309.82"/><line class="cls-4" x1="575.55" y1="444.21" x2="569.56" y2="442.18"/><line class="cls-4" x1="311.45" y1="569.95" x2="309.43" y2="575.95"/><line class="cls-4" x1="443.81" y1="178.08" x2="441.79" y2="184.07"/><line class="cls-4" x1="183.68" y1="311.84" x2="177.69" y2="309.82"/><line class="cls-4" x1="575.55" y1="444.21" x2="569.56" y2="442.18"/><line class="cls-4" x1="352.27" y1="579.2" x2="351.51" y2="585.48"/><line class="cls-4" x1="401.73" y1="168.55" x2="400.97" y2="174.83"/><line class="cls-4" x1="174.43" y1="352.66" x2="168.15" y2="351.9"/><line class="cls-4" x1="585.09" y1="402.12" x2="578.81" y2="401.37"/><line class="cls-4" x1="352.27" y1="579.2" x2="351.51" y2="585.48"/><line class="cls-4" x1="401.73" y1="168.55" x2="400.97" y2="174.83"/><line class="cls-4" x1="174.43" y1="352.66" x2="168.15" y2="351.9"/><line class="cls-4" x1="585.09" y1="402.12" x2="578.81" y2="401.37"/><line class="cls-4" x1="331.39" y1="575.58" x2="329.99" y2="581.75"/><line class="cls-4" x1="423.25" y1="172.28" x2="421.85" y2="178.45"/><line class="cls-4" x1="178.06" y1="331.79" x2="171.89" y2="330.38"/><line class="cls-4" x1="581.35" y1="423.65" x2="575.18" y2="422.24"/><line class="cls-4" x1="331.39" y1="575.58" x2="329.99" y2="581.75"/><line class="cls-4" x1="423.25" y1="172.28" x2="421.85" y2="178.45"/><line class="cls-4" x1="178.06" y1="331.79" x2="171.89" y2="330.38"/><line class="cls-4" x1="581.35" y1="423.65" x2="575.18" y2="422.24"/><line class="cls-4" x1="173.56" y1="372.3" x2="167.23" y2="372.16"/><line class="cls-4" x1="587.07" y1="381.84" x2="580.75" y2="381.7"/><line class="cls-4" x1="381.85" y1="173.4" x2="381.99" y2="167.08"/><line class="cls-4" x1="372.31" y1="586.92" x2="372.45" y2="580.6"/><line class="cls-4" x1="173.5" y1="377" x2="167.18" y2="377"/><line class="cls-4" x1="587.13" y1="377" x2="580.8" y2="377"/><line class="cls-4" x1="377.15" y1="173.35" x2="377.15" y2="167.03"/><line class="cls-4" x1="377.15" y1="586.97" x2="377.15" y2="580.65"/></g></g></g></svg>