<svg xmlns="http://www.w3.org/2000/svg" xmlns:xlink="http://www.w3.org/1999/xlink" viewBox="0 0 754 754"><defs><style>.cls-1{fill:none;}.cls-2{clip-path:url(#clip-path);}.cls-3{fill:#41cca0;}.cls-4{fill:#bfff25;}.cls-5{opacity:0;}.cls-6{clip-path:url(#clip-path-2);}</style><clipPath id="clip-path"><rect class="cls-1" x="377" width="377" height="754"/></clipPath><clipPath id="clip-path-2"><polygon id="SVGID" class="cls-1" points="714 714.01 377 714.01 4.67 710.44 39.33 98.89 276.67 192.22 377 39.88 714 39.88 714 714.01"/></clipPath></defs><g id="레이어_2" data-name="레이어 2"><g class="cls-2"><path class="cls-3" d="M377,2A375.1,375.1,0,0,1,523,722.53,375.1,375.1,0,0,1,231,31.47,372.54,372.54,0,0,1,377,2m0-1C169.34,1,1,169.34,1,377S169.34,753,377,753,753,584.66,753,377,584.66,1,377,1Z"/></g><ellipse class="cls-4" cx="376.56" cy="1.56" rx="1.81" ry="1.08"/><ellipse class="cls-4" cx="377.14" cy="752.51" rx="1.81" ry="1.08"/></g><g id="레이어_3" data-name="레이어 3"><g class="cls-5"><g class="cls-6"><path class="cls-3" d="M377,41.82a335.26,335.26,0,0,1,130.46,644A335.26,335.26,0,0,1,246.54,68.16,333,333,0,0,1,377,41.82m0-1C191.34,40.82,40.83,191.33,40.83,377S191.34,713.17,377,713.17,713.17,562.66,713.17,377,562.66,40.82,377,40.82Z"/></g></g></g></svg>