<svg xmlns="http://www.w3.org/2000/svg" xmlns:xlink="http://www.w3.org/1999/xlink" viewBox="0 0 754 754"><defs><style>.cls-1,.cls-2{fill:none;}.cls-2{stroke:#7596f7;stroke-miterlimit:10;opacity:0.2;}.cls-3{font-size:10px;fill:#7596f7;}.cls-3,.cls-4{font-family:AutoScape;}.cls-4{font-size:6px;fill:#4861a0;}.cls-5{clip-path:url(#clip-path);}.cls-6{fill:#41cca0;}.cls-7{clip-path:url(#clip-path-2);}.cls-8{fill:#bfff25;}.cls-9{clip-path:url(#clip-path-3);}.cls-10{clip-path:url(#clip-path-4);}</style><clipPath id="clip-path"><rect class="cls-1" y="412.67" width="364.81" height="270.06"/></clipPath><clipPath id="clip-path-2"><polygon class="cls-1" points="377.56 71.28 754 71.28 754 335.93 389.19 335.93 377.56 88.94 377.56 71.28"/></clipPath><clipPath id="clip-path-3"><polygon class="cls-1" points="390.56 682.75 754 682.75 754 418.1 389.19 418.1 388.67 665.08 390.56 682.75"/></clipPath><clipPath id="clip-path-4"><rect class="cls-1" y="71.28" width="364.81" height="269.39"/></clipPath></defs><g id="레이어_3" data-name="레이어 3"><circle class="cls-2" cx="377" cy="377" r="284.44"/><text class="cls-3" transform="translate(369.94 675.32)">Cr</text><text class="cls-4" transform="translate(364.7 683.05)">Num 24</text><g class="cls-5"><path class="cls-6" d="M377,82.89A293.19,293.19,0,1,1,262.52,106,292.36,292.36,0,0,1,377,82.89m0-1C214,81.89,81.89,214,81.89,377S214,672.11,377,672.11,672.11,540,672.11,377,540,81.89,377,81.89Z"/></g><g class="cls-7"><path class="cls-6" d="M377,82.89A293.19,293.19,0,1,1,262.52,106,292.36,292.36,0,0,1,377,82.89m0-1C214,81.89,81.89,214,81.89,377S214,672.11,377,672.11,672.11,540,672.11,377,540,81.89,377,81.89Z"/></g><ellipse class="cls-8" cx="377" cy="82.36" rx="1.81" ry="1.08"/><ellipse class="cls-8" cx="668.78" cy="335.83" rx="1.08" ry="1.81"/><g class="cls-9"><path class="cls-6" d="M377,82.92A293.19,293.19,0,1,1,262.52,106,292.18,292.18,0,0,1,377,82.92m0-1C214,81.92,81.89,214,81.89,377S214,672.14,377,672.14,672.11,540,672.11,377,540,81.92,377,81.92Z"/></g><ellipse class="cls-8" cx="668.78" cy="418.19" rx="1.08" ry="1.81"/><ellipse class="cls-8" cx="389.47" cy="671.42" rx="1.81" ry="1.08"/><g class="cls-10"><path class="cls-6" d="M377,82.89A293.19,293.19,0,1,1,262.52,106,292.36,292.36,0,0,1,377,82.89m0-1C214,81.89,81.89,214,81.89,377S214,672.11,377,672.11,672.11,540,672.11,377,540,81.89,377,81.89Z"/></g></g></svg>