<svg xmlns="http://www.w3.org/2000/svg" xmlns:xlink="http://www.w3.org/1999/xlink" viewBox="0 0 754 754"><defs><style>.cls-1,.cls-14,.cls-3,.cls-7{fill:none;}.cls-2{opacity:0.15;}.cls-3,.cls-7{stroke:#41cca0;}.cls-14,.cls-3,.cls-7{stroke-miterlimit:10;}.cls-10,.cls-4{opacity:0.3;}.cls-15,.cls-5{fill:#7596f7;}.cls-6{opacity:0.7;}.cls-7{stroke-dasharray:1 4;}.cls-8{opacity:0.2;}.cls-10,.cls-9{fill:#bfff25;}.cls-11{clip-path:url(#clip-path);}.cls-12{font-size:7px;}.cls-12,.cls-16{fill:#4861a0;}.cls-12,.cls-15,.cls-16{font-family:AutoScape;}.cls-13{clip-path:url(#clip-path-2);}.cls-14{stroke:#40ffc3;}.cls-15{font-size:10px;}.cls-16{font-size:6px;}</style><clipPath id="clip-path"><rect class="cls-1" x="692.11" y="273.44" width="56.89" height="207.11"/></clipPath><clipPath id="clip-path-2"><rect class="cls-1" x="5.04" y="273.44" width="56.89" height="207.11" transform="translate(66.96 754) rotate(-180)"/></clipPath></defs><g id="레이어_3" data-name="레이어 3"><g class="cls-2"><line class="cls-3" x1="78.57" y1="377.41" x2="675.43" y2="377.41"/><line class="cls-3" x1="377" y1="660.63" x2="377" y2="93.37"/></g><g class="cls-4"><path class="cls-5" d="M377,166c116.51,0,211,94.45,211,211S493.51,588,377,588,166,493.51,166,377s94.45-211,211-211m0-1a211.21,211.21,0,1,0,82.51,16.65A210.75,210.75,0,0,0,377,165Z"/></g><g class="cls-6"><circle class="cls-7" cx="377" cy="377" r="195.11"/></g><g class="cls-8"><path class="cls-5" d="M377,93.89c156.36,0,283.11,126.75,283.11,283.11S533.36,660.11,377,660.11,93.89,533.36,93.89,377,220.64,93.89,377,93.89m0-1a283.29,283.29,0,1,0,110.59,22.33A282.28,282.28,0,0,0,377,92.89Z"/></g><rect class="cls-9" x="683.48" y="374.57" width="2.11" height="4.85"/><rect class="cls-9" x="688.44" y="374.57" width="2.11" height="4.85"/><rect class="cls-10" x="693.44" y="374.57" width="2.11" height="4.85"/><rect class="cls-10" x="698.41" y="374.57" width="2.11" height="4.85"/><rect class="cls-9" x="26.98" y="374.57" width="2.11" height="4.85"/><rect class="cls-9" x="31.94" y="374.57" width="2.11" height="4.85"/><rect class="cls-9" x="36.94" y="374.57" width="2.11" height="4.85"/><rect class="cls-9" x="41.91" y="374.57" width="2.11" height="4.85"/><g class="cls-11"><circle class="cls-3" cx="372" cy="377" r="362.22"/></g><text class="cls-12" transform="translate(723.54 275.33)">100</text><text class="cls-12" transform="translate(723.54 484.11)">100</text><text class="cls-12" transform="translate(729.66 456.11)">75</text><text class="cls-12" transform="translate(735.54 432.22)">50</text><text class="cls-12" transform="translate(738.04 405.78)">25</text><text class="cls-12" transform="translate(738.04 355.48)">25</text><text class="cls-12" transform="translate(735.54 331.58)">50</text><text class="cls-12" transform="translate(729.66 305.14)">75</text><text class="cls-12" transform="translate(739.09 379.33)">00</text><ellipse class="cls-9" cx="718.85" cy="481.4" rx="1.81" ry="1.08" transform="translate(23.99 996.82) rotate(-70.38)"/><ellipse class="cls-9" cx="719.22" cy="273.44" rx="1.08" ry="1.81" transform="translate(-50.06 257.44) rotate(-19.62)"/><text class="cls-12" transform="translate(14.03 456.11)">75</text><text class="cls-12" transform="translate(8.52 432.23)">50</text><text class="cls-12" transform="translate(6.15 405.74)">25</text><text class="cls-12" transform="translate(8.52 331.58)">50</text><text class="cls-12" transform="translate(6.15 355.48)">25</text><g class="cls-13"><circle class="cls-3" cx="382.04" cy="377" r="362.22"/></g><text class="cls-12" transform="translate(15.97 275.33)">100</text><text class="cls-12" transform="translate(15.97 484.11)">100</text><text class="cls-12" transform="translate(14.03 305.14)">75</text><text class="cls-12" transform="matrix(-1, 0, 0, 1, 14.96, 379.33)">00</text><ellipse class="cls-9" cx="35.18" cy="481.4" rx="1.08" ry="1.81" transform="matrix(0.94, -0.34, 0.34, 0.94, -159.64, 39.78)"/><ellipse class="cls-9" cx="34.81" cy="273.44" rx="1.81" ry="1.08" transform="translate(-234.44 214.4) rotate(-70.38)"/><line class="cls-14" x1="125.11" y1="377" x2="53.42" y2="377"/><polyline class="cls-14" points="50.83 373.86 50.83 368.3 55.22 368.3"/><polyline class="cls-14" points="50.83 380.14 50.83 385.7 55.22 385.7"/><line class="cls-14" x1="125.2" y1="374.83" x2="125.2" y2="379.17"/><text class="cls-15" transform="translate(363.28 152.05)">S102</text><text class="cls-16" transform="translate(365.49 137.51)">Num 03</text><g class="cls-8"><path class="cls-5" d="M377,100.26c152.84,0,276.74,123.9,276.74,276.74S529.84,653.74,377,653.74,100.26,529.84,100.26,377,224.16,100.26,377,100.26m0-1a276.89,276.89,0,1,0,108.11,21.83A275.89,275.89,0,0,0,377,99.26Z"/></g></g></svg>