<svg xmlns="http://www.w3.org/2000/svg" viewBox="0 0 754 754"><defs><style>.cls-1,.cls-2,.cls-3{fill:none;stroke-miterlimit:10;}.cls-1,.cls-3{stroke:#577ac9;}.cls-1{opacity:0.4;}.cls-2{stroke:#2e5293;}</style></defs><g id="레이어_3" data-name="레이어 3"><circle class="cls-1" cx="377.14" cy="374.81" r="253.02"/><line class="cls-2" x1="194.87" y1="556.65" x2="189.23" y2="562.3"/><line class="cls-2" x1="563.45" y1="187.31" x2="557.81" y2="192.96"/><line class="cls-2" x1="194.49" y1="193.33" x2="188.85" y2="187.7"/><line class="cls-2" x1="563.84" y1="561.92" x2="558.19" y2="556.28"/><line class="cls-2" x1="280.25" y1="136.71" x2="277.25" y2="129.31"/><line class="cls-2" x1="476.07" y1="620.37" x2="473.07" y2="612.97"/><line class="cls-2" x1="276.69" y1="611.5" x2="273.59" y2="618.85"/><line class="cls-2" x1="479.73" y1="130.83" x2="476.62" y2="138.18"/><line class="cls-2" x1="140" y1="274.88" x2="132.65" y2="271.77"/><line class="cls-2" x1="620.67" y1="477.91" x2="613.32" y2="474.8"/><line class="cls-2" x1="138.53" y1="471.25" x2="131.13" y2="474.25"/><line class="cls-2" x1="622.18" y1="275.43" x2="614.79" y2="278.43"/><line class="cls-2" x1="280.25" y1="136.71" x2="277.25" y2="129.31"/><line class="cls-2" x1="476.07" y1="620.37" x2="473.07" y2="612.97"/><line class="cls-2" x1="163.74" y1="518.96" x2="157.14" y2="523.44"/><line class="cls-2" x1="595.57" y1="226.06" x2="588.97" y2="230.54"/><line class="cls-2" x1="232.14" y1="162.13" x2="227.66" y2="155.53"/><line class="cls-2" x1="525.04" y1="593.96" x2="520.56" y2="587.36"/><line class="cls-2" x1="327.06" y1="122.77" x2="325.52" y2="114.94"/><line class="cls-2" x1="427.79" y1="634.74" x2="426.25" y2="626.91"/><line class="cls-2" x1="233.7" y1="588.3" x2="229.26" y2="594.93"/><line class="cls-2" x1="524.05" y1="154.75" x2="519.61" y2="161.38"/><line class="cls-2" x1="163.2" y1="231.89" x2="156.57" y2="227.45"/><line class="cls-2" x1="596.75" y1="522.24" x2="590.12" y2="517.79"/><line class="cls-2" x1="124.58" y1="424.43" x2="116.75" y2="425.98"/><line class="cls-2" x1="636.56" y1="323.71" x2="628.73" y2="325.25"/><line class="cls-2" x1="327.06" y1="122.77" x2="325.52" y2="114.94"/><line class="cls-2" x1="427.79" y1="634.74" x2="426.25" y2="626.91"/><line class="cls-2" x1="177.87" y1="537.89" x2="171.7" y2="542.96"/><line class="cls-2" x1="580.99" y1="206.59" x2="574.83" y2="211.66"/><line class="cls-2" x1="213.23" y1="176.29" x2="208.17" y2="170.13"/><line class="cls-2" x1="544.53" y1="579.42" x2="539.46" y2="573.26"/><line class="cls-2" x1="304.14" y1="128.38" x2="301.89" y2="120.73"/><line class="cls-2" x1="451.43" y1="628.95" x2="449.18" y2="621.3"/><line class="cls-2" x1="253.9" y1="600.52" x2="250.08" y2="607.53"/><line class="cls-2" x1="503.23" y1="142.15" x2="499.42" y2="149.16"/><line class="cls-2" x1="150.98" y1="252.08" x2="143.97" y2="248.27"/><line class="cls-2" x1="609.35" y1="501.41" x2="602.34" y2="497.6"/><line class="cls-2" x1="130.2" y1="447.36" x2="122.54" y2="449.61"/><line class="cls-2" x1="630.77" y1="300.07" x2="623.12" y2="302.32"/><line class="cls-2" x1="304.14" y1="128.38" x2="301.89" y2="120.73"/><line class="cls-2" x1="451.43" y1="628.95" x2="449.18" y2="621.3"/><line class="cls-2" x1="276.69" y1="611.5" x2="273.59" y2="618.85"/><line class="cls-2" x1="479.73" y1="130.83" x2="476.62" y2="138.18"/><line class="cls-2" x1="140" y1="274.88" x2="132.65" y2="271.77"/><line class="cls-2" x1="620.67" y1="477.91" x2="613.32" y2="474.8"/><line class="cls-2" x1="163.74" y1="518.96" x2="157.14" y2="523.44"/><line class="cls-2" x1="595.57" y1="226.06" x2="588.97" y2="230.54"/><line class="cls-2" x1="232.14" y1="162.13" x2="227.66" y2="155.53"/><line class="cls-2" x1="525.04" y1="593.96" x2="520.56" y2="587.36"/><line class="cls-2" x1="327.06" y1="122.77" x2="325.52" y2="114.94"/><line class="cls-2" x1="427.79" y1="634.74" x2="426.25" y2="626.91"/><line class="cls-2" x1="233.7" y1="588.3" x2="229.26" y2="594.93"/><line class="cls-2" x1="524.05" y1="154.75" x2="519.61" y2="161.38"/><line class="cls-2" x1="163.2" y1="231.89" x2="156.57" y2="227.45"/><line class="cls-2" x1="596.75" y1="522.24" x2="590.12" y2="517.79"/><line class="cls-2" x1="124.58" y1="424.43" x2="116.75" y2="425.98"/><line class="cls-2" x1="636.56" y1="323.71" x2="628.73" y2="325.25"/><line class="cls-2" x1="327.06" y1="122.77" x2="325.52" y2="114.94"/><line class="cls-2" x1="427.79" y1="634.74" x2="426.25" y2="626.91"/><line class="cls-2" x1="177.87" y1="537.89" x2="171.7" y2="542.96"/><line class="cls-2" x1="580.99" y1="206.59" x2="574.83" y2="211.66"/><line class="cls-2" x1="213.23" y1="176.29" x2="208.17" y2="170.13"/><line class="cls-2" x1="544.53" y1="579.42" x2="539.46" y2="573.26"/><line class="cls-2" x1="304.14" y1="128.38" x2="301.89" y2="120.73"/><line class="cls-2" x1="451.43" y1="628.95" x2="449.18" y2="621.3"/><line class="cls-2" x1="253.9" y1="600.52" x2="250.08" y2="607.53"/><line class="cls-2" x1="503.23" y1="142.15" x2="499.42" y2="149.16"/><line class="cls-2" x1="150.98" y1="252.08" x2="143.97" y2="248.27"/><line class="cls-2" x1="609.35" y1="501.41" x2="602.34" y2="497.6"/><line class="cls-2" x1="130.2" y1="447.36" x2="122.54" y2="449.61"/><line class="cls-2" x1="630.77" y1="300.07" x2="623.12" y2="302.32"/><line class="cls-2" x1="304.14" y1="128.38" x2="301.89" y2="120.73"/><line class="cls-2" x1="451.43" y1="628.95" x2="449.18" y2="621.3"/><line class="cls-2" x1="150.23" y1="496.63" x2="143.2" y2="500.42"/><line class="cls-2" x1="609.53" y1="249.02" x2="602.5" y2="252.8"/><line class="cls-2" x1="254.45" y1="148.58" x2="250.67" y2="141.55"/><line class="cls-2" x1="502.06" y1="607.88" x2="498.28" y2="600.85"/><line class="cls-2" x1="352.87" y1="119.04" x2="352.13" y2="111.09"/><line class="cls-2" x1="401.18" y1="638.59" x2="400.44" y2="630.64"/><line class="cls-2" x1="212.8" y1="572.71" x2="207.71" y2="578.85"/><line class="cls-2" x1="545.61" y1="170.83" x2="540.52" y2="176.97"/><line class="cls-2" x1="178.79" y1="210.98" x2="172.64" y2="205.89"/><line class="cls-2" x1="580.67" y1="543.79" x2="574.53" y2="538.7"/><line class="cls-2" x1="120.85" y1="398.62" x2="112.91" y2="399.36"/><line class="cls-2" x1="640.41" y1="350.32" x2="632.46" y2="351.06"/><line class="cls-2" x1="352.87" y1="119.04" x2="352.13" y2="111.09"/><line class="cls-2" x1="401.18" y1="638.59" x2="400.44" y2="630.64"/><line class="cls-2" x1="300.08" y1="620.07" x2="297.7" y2="627.69"/><line class="cls-2" x1="455.61" y1="121.99" x2="453.23" y2="129.61"/><line class="cls-2" x1="131.43" y1="298.26" x2="123.81" y2="295.89"/><line class="cls-2" x1="629.5" y1="453.8" x2="621.89" y2="451.42"/><line class="cls-2" x1="300.08" y1="620.07" x2="297.7" y2="627.69"/><line class="cls-2" x1="455.61" y1="121.99" x2="453.23" y2="129.61"/><line class="cls-2" x1="131.43" y1="298.26" x2="123.81" y2="295.89"/><line class="cls-2" x1="629.5" y1="453.8" x2="621.89" y2="451.42"/><line class="cls-2" x1="351.83" y1="630.54" x2="351.06" y2="638.49"/><line class="cls-2" x1="402.26" y1="111.19" x2="401.49" y2="119.14"/><line class="cls-2" x1="120.95" y1="350.01" x2="113.01" y2="349.24"/><line class="cls-2" x1="640.3" y1="400.44" x2="632.36" y2="399.67"/><line class="cls-2" x1="351.83" y1="630.54" x2="351.06" y2="638.49"/><line class="cls-2" x1="402.26" y1="111.19" x2="401.49" y2="119.14"/><line class="cls-2" x1="120.95" y1="350.01" x2="113.01" y2="349.24"/><line class="cls-2" x1="640.3" y1="400.44" x2="632.36" y2="399.67"/><line class="cls-2" x1="325.4" y1="626.58" x2="323.8" y2="634.4"/><line class="cls-2" x1="429.51" y1="115.28" x2="427.92" y2="123.1"/><line class="cls-2" x1="124.92" y1="323.58" x2="117.1" y2="321.99"/><line class="cls-2" x1="636.22" y1="427.7" x2="628.4" y2="426.1"/><line class="cls-2" x1="325.4" y1="626.58" x2="323.8" y2="634.4"/><line class="cls-2" x1="429.51" y1="115.28" x2="427.92" y2="123.1"/><line class="cls-2" x1="124.92" y1="323.58" x2="117.1" y2="321.99"/><line class="cls-2" x1="636.22" y1="427.7" x2="628.4" y2="426.1"/><line class="cls-2" x1="204.26" y1="565.61" x2="198.91" y2="571.54"/><line class="cls-2" x1="553.77" y1="178.18" x2="548.43" y2="184.1"/><line class="cls-2" x1="185.59" y1="202.77" x2="179.66" y2="197.42"/><line class="cls-2" x1="573.02" y1="552.29" x2="567.1" y2="546.94"/><line class="cls-2" x1="268.38" y1="141.9" x2="265.02" y2="134.66"/><line class="cls-2" x1="488.3" y1="615.08" x2="484.94" y2="607.85"/><line class="cls-2" x1="288.74" y1="616.27" x2="286.01" y2="623.77"/><line class="cls-2" x1="467.31" y1="125.98" x2="464.58" y2="133.48"/><line class="cls-2" x1="135.27" y1="286.95" x2="127.77" y2="284.22"/><line class="cls-2" x1="625.55" y1="465.53" x2="618.05" y2="462.8"/><line class="cls-2" x1="143.69" y1="483.15" x2="136.45" y2="486.52"/><line class="cls-2" x1="616.87" y1="263.23" x2="609.63" y2="266.59"/><line class="cls-2" x1="268.38" y1="141.9" x2="265.02" y2="134.66"/><line class="cls-2" x1="488.3" y1="615.08" x2="484.94" y2="607.85"/><line class="cls-2" x1="171.27" y1="529.53" x2="164.9" y2="534.33"/><line class="cls-2" x1="587.81" y1="215.26" x2="581.43" y2="220.06"/><line class="cls-2" x1="221.62" y1="169.71" x2="216.81" y2="163.34"/><line class="cls-2" x1="535.89" y1="586.25" x2="531.08" y2="579.88"/><line class="cls-2" x1="314.44" y1="125.62" x2="312.5" y2="117.87"/><line class="cls-2" x1="440.82" y1="631.87" x2="438.88" y2="624.13"/><line class="cls-2" x1="244.64" y1="595.26" x2="240.53" y2="602.11"/><line class="cls-2" x1="513.55" y1="148.13" x2="509.45" y2="154.98"/><line class="cls-2" x1="156.27" y1="242.85" x2="149.43" y2="238.75"/><line class="cls-2" x1="603.89" y1="511" x2="597.05" y2="506.9"/><line class="cls-2" x1="127.4" y1="437.1" x2="119.66" y2="439.03"/><line class="cls-2" x1="633.66" y1="310.72" x2="625.92" y2="312.65"/><line class="cls-2" x1="314.44" y1="125.62" x2="312.5" y2="117.87"/><line class="cls-2" x1="440.82" y1="631.87" x2="438.88" y2="624.13"/><line class="cls-2" x1="186.33" y1="547.73" x2="180.43" y2="553.1"/><line class="cls-2" x1="572.27" y1="196.55" x2="566.36" y2="201.92"/><line class="cls-2" x1="203.45" y1="184.81" x2="198.07" y2="178.91"/><line class="cls-2" x1="554.62" y1="570.74" x2="549.25" y2="564.84"/><line class="cls-2" x1="291.82" y1="132.38" x2="289.19" y2="124.85"/><line class="cls-2" x1="464.13" y1="624.9" x2="461.5" y2="617.37"/><line class="cls-2" x1="265.42" y1="606.45" x2="261.96" y2="613.64"/><line class="cls-2" x1="491.36" y1="136.11" x2="487.9" y2="143.3"/><line class="cls-2" x1="145.09" y1="263.63" x2="137.89" y2="260.18"/><line class="cls-2" x1="615.43" y1="489.57" x2="608.23" y2="486.12"/><line class="cls-2" x1="134.17" y1="459.71" x2="126.63" y2="462.35"/><line class="cls-2" x1="626.69" y1="287.4" x2="619.16" y2="290.04"/><line class="cls-2" x1="291.82" y1="132.38" x2="289.19" y2="124.85"/><line class="cls-2" x1="464.13" y1="624.9" x2="461.5" y2="617.37"/><line class="cls-2" x1="288.74" y1="616.27" x2="286.01" y2="623.77"/><line class="cls-2" x1="467.31" y1="125.98" x2="464.58" y2="133.48"/><line class="cls-2" x1="135.27" y1="286.95" x2="127.77" y2="284.22"/><line class="cls-2" x1="625.55" y1="465.53" x2="618.05" y2="462.8"/><line class="cls-2" x1="171.27" y1="529.53" x2="164.9" y2="534.33"/><line class="cls-2" x1="587.81" y1="215.26" x2="581.43" y2="220.06"/><line class="cls-2" x1="221.62" y1="169.71" x2="216.81" y2="163.34"/><line class="cls-2" x1="535.89" y1="586.25" x2="531.08" y2="579.88"/><line class="cls-2" x1="314.44" y1="125.62" x2="312.5" y2="117.87"/><line class="cls-2" x1="440.82" y1="631.87" x2="438.88" y2="624.13"/><line class="cls-2" x1="244.64" y1="595.26" x2="240.53" y2="602.11"/><line class="cls-2" x1="156.27" y1="242.85" x2="149.43" y2="238.75"/><line class="cls-2" x1="603.89" y1="511" x2="597.05" y2="506.9"/><line class="cls-2" x1="127.4" y1="437.1" x2="119.66" y2="439.03"/><line class="cls-2" x1="633.66" y1="310.72" x2="625.92" y2="312.65"/><line class="cls-2" x1="314.44" y1="125.62" x2="312.5" y2="117.87"/><line class="cls-2" x1="440.82" y1="631.87" x2="438.88" y2="624.13"/><line class="cls-2" x1="186.33" y1="547.73" x2="180.43" y2="553.1"/><line class="cls-2" x1="572.27" y1="196.55" x2="566.36" y2="201.92"/><line class="cls-2" x1="203.45" y1="184.81" x2="198.07" y2="178.91"/><line class="cls-2" x1="554.62" y1="570.74" x2="549.25" y2="564.84"/><line class="cls-2" x1="291.82" y1="132.38" x2="289.19" y2="124.85"/><line class="cls-2" x1="464.13" y1="624.9" x2="461.5" y2="617.37"/><line class="cls-2" x1="265.42" y1="606.45" x2="261.96" y2="613.64"/><line class="cls-2" x1="491.36" y1="136.11" x2="487.9" y2="143.3"/><line class="cls-2" x1="145.09" y1="263.63" x2="137.89" y2="260.18"/><line class="cls-2" x1="615.43" y1="489.57" x2="608.23" y2="486.12"/><line class="cls-2" x1="134.17" y1="459.71" x2="126.63" y2="462.35"/><line class="cls-2" x1="626.69" y1="287.4" x2="619.16" y2="290.04"/><line class="cls-2" x1="291.82" y1="132.38" x2="289.19" y2="124.85"/><line class="cls-2" x1="464.13" y1="624.9" x2="461.5" y2="617.37"/><line class="cls-2" x1="156.65" y1="507.91" x2="149.82" y2="512.05"/><line class="cls-2" x1="602.9" y1="237.49" x2="596.07" y2="241.62"/><line class="cls-2" x1="243.22" y1="155.05" x2="239.08" y2="148.23"/><line class="cls-2" x1="513.64" y1="601.3" x2="509.51" y2="594.48"/><line class="cls-2" x1="340.03" y1="120.59" x2="338.89" y2="112.69"/><line class="cls-2" x1="414.43" y1="637.05" x2="413.29" y2="629.16"/><line class="cls-2" x1="222.97" y1="580.74" x2="218.2" y2="587.14"/><line class="cls-2" x1="535.12" y1="162.61" x2="530.35" y2="169.01"/><line class="cls-2" x1="170.79" y1="221.19" x2="164.4" y2="216.41"/><line class="cls-2" x1="588.92" y1="533.33" x2="582.53" y2="528.56"/><line class="cls-2" x1="122.38" y1="411.51" x2="114.48" y2="412.65"/><line class="cls-2" x1="638.84" y1="337.1" x2="630.94" y2="338.24"/><line class="cls-2" x1="340.03" y1="120.59" x2="338.89" y2="112.69"/><line class="cls-2" x1="414.43" y1="637.05" x2="413.29" y2="629.16"/><line class="cls-2" x1="312.53" y1="623.65" x2="310.54" y2="631.37"/><line class="cls-2" x1="442.78" y1="118.37" x2="440.79" y2="126.1"/><line class="cls-2" x1="127.89" y1="310.74" x2="120.16" y2="308.75"/><line class="cls-2" x1="633.16" y1="441" x2="625.43" y2="439.01"/><line class="cls-2" x1="312.53" y1="623.65" x2="310.54" y2="631.37"/><line class="cls-2" x1="442.78" y1="118.37" x2="440.79" y2="126.1"/><line class="cls-2" x1="127.89" y1="310.74" x2="120.16" y2="308.75"/><line class="cls-2" x1="633.16" y1="441" x2="625.43" y2="439.01"/><line class="cls-2" x1="364.74" y1="631.5" x2="364.37" y2="639.47"/><line class="cls-2" x1="388.95" y1="110.27" x2="388.58" y2="118.24"/><line class="cls-2" x1="120.03" y1="362.95" x2="112.06" y2="362.58"/><line class="cls-2" x1="641.26" y1="387.17" x2="633.29" y2="386.8"/><line class="cls-2" x1="364.74" y1="631.5" x2="364.37" y2="639.47"/><line class="cls-2" x1="388.95" y1="110.27" x2="388.58" y2="118.24"/><line class="cls-2" x1="120.03" y1="362.95" x2="112.06" y2="362.58"/><line class="cls-2" x1="641.26" y1="387.17" x2="633.29" y2="386.8"/><line class="cls-2" x1="338.14" y1="628.88" x2="336.94" y2="636.77"/><line class="cls-2" x1="416.38" y1="112.98" x2="415.18" y2="120.87"/><line class="cls-2" x1="122.66" y1="336.35" x2="114.77" y2="335.15"/><line class="cls-2" x1="638.55" y1="414.59" x2="630.66" y2="413.4"/><line class="cls-2" x1="338.14" y1="628.88" x2="336.94" y2="636.77"/><line class="cls-2" x1="416.38" y1="112.98" x2="415.18" y2="120.87"/><line class="cls-2" x1="122.66" y1="336.35" x2="114.77" y2="335.15"/><line class="cls-2" x1="638.55" y1="414.59" x2="630.66" y2="413.4"/><line class="cls-2" x1="120.75" y1="387.74" x2="112.78" y2="388.14"/><line class="cls-2" x1="641.88" y1="361.47" x2="633.91" y2="361.87"/><line class="cls-2" x1="364.39" y1="118.23" x2="363.99" y2="110.26"/><line class="cls-2" x1="390.66" y1="639.36" x2="390.26" y2="631.39"/><line class="cls-2" x1="199.74" y1="561.41" x2="194.25" y2="567.21"/><line class="cls-2" x1="558.43" y1="182.46" x2="552.95" y2="188.25"/><line class="cls-2" x1="189.76" y1="198.23" x2="183.97" y2="192.74"/><line class="cls-2" x1="568.72" y1="556.92" x2="562.92" y2="551.44"/><line class="cls-2" x1="273.99" y1="139.36" x2="270.8" y2="132.04"/><line class="cls-2" x1="482.52" y1="617.67" x2="479.33" y2="610.36"/><line class="cls-2" x1="282.98" y1="614.08" x2="280.07" y2="621.51"/><line class="cls-2" x1="473.25" y1="128.21" x2="470.34" y2="135.64"/><line class="cls-2" x1="137.44" y1="281.18" x2="130.01" y2="278.27"/><line class="cls-2" x1="623.31" y1="471.45" x2="615.88" y2="468.54"/><line class="cls-2" x1="141.16" y1="477.53" x2="133.84" y2="480.72"/><line class="cls-2" x1="619.47" y1="269" x2="612.16" y2="272.19"/><line class="cls-2" x1="273.99" y1="139.36" x2="270.8" y2="132.04"/><line class="cls-2" x1="482.52" y1="617.67" x2="479.33" y2="610.36"/><line class="cls-2" x1="167.62" y1="524.55" x2="161.14" y2="529.2"/><line class="cls-2" x1="591.57" y1="220.34" x2="585.08" y2="225"/><line class="cls-2" x1="226.58" y1="166.04" x2="221.92" y2="159.56"/><line class="cls-2" x1="530.78" y1="589.99" x2="526.13" y2="583.5"/><line class="cls-2" x1="320.42" y1="124.18" x2="318.68" y2="116.4"/><line class="cls-2" x1="434.64" y1="633.32" x2="432.89" y2="625.53"/><line class="cls-2" x1="239.39" y1="592.02" x2="235.13" y2="598.76"/><line class="cls-2" x1="518.19" y1="150.95" x2="513.92" y2="157.7"/><line class="cls-2" x1="159.5" y1="237.59" x2="152.75" y2="233.33"/><line class="cls-2" x1="600.57" y1="516.39" x2="593.82" y2="512.12"/><line class="cls-2" x1="125.98" y1="431.09" x2="118.2" y2="432.84"/><line class="cls-2" x1="635.12" y1="316.88" x2="627.34" y2="318.62"/><line class="cls-2" x1="320.42" y1="124.18" x2="318.68" y2="116.4"/><line class="cls-2" x1="434.64" y1="633.32" x2="432.89" y2="625.53"/><line class="cls-2" x1="182.24" y1="543.1" x2="176.21" y2="548.33"/><line class="cls-2" x1="576.48" y1="201.27" x2="570.45" y2="206.5"/><line class="cls-2" x1="208.05" y1="180.7" x2="202.82" y2="174.67"/><line class="cls-2" x1="549.87" y1="574.93" x2="544.65" y2="568.9"/><line class="cls-2" x1="297.65" y1="130.4" x2="295.2" y2="122.81"/><line class="cls-2" x1="458.12" y1="626.91" x2="455.66" y2="619.32"/><line class="cls-2" x1="259.9" y1="603.7" x2="256.28" y2="610.81"/><line class="cls-2" x1="497.04" y1="138.91" x2="493.42" y2="146.02"/><line class="cls-2" x1="147.82" y1="258.1" x2="140.71" y2="254.47"/><line class="cls-2" x1="612.61" y1="495.24" x2="605.5" y2="491.61"/><line class="cls-2" x1="132.2" y1="453.86" x2="124.61" y2="456.32"/><line class="cls-2" x1="628.71" y1="293.4" x2="621.12" y2="295.85"/><line class="cls-2" x1="297.65" y1="130.4" x2="295.2" y2="122.81"/><line class="cls-2" x1="458.12" y1="626.91" x2="455.66" y2="619.32"/><line class="cls-2" x1="282.98" y1="614.08" x2="280.07" y2="621.51"/><line class="cls-2" x1="473.25" y1="128.21" x2="470.34" y2="135.64"/><line class="cls-2" x1="137.44" y1="281.18" x2="130.01" y2="278.27"/><line class="cls-2" x1="623.31" y1="471.45" x2="615.88" y2="468.54"/><line class="cls-2" x1="167.62" y1="524.55" x2="161.14" y2="529.2"/><line class="cls-2" x1="591.57" y1="220.34" x2="585.08" y2="225"/><line class="cls-2" x1="226.58" y1="166.04" x2="221.92" y2="159.56"/><line class="cls-2" x1="530.78" y1="589.99" x2="526.13" y2="583.5"/><line class="cls-2" x1="320.42" y1="124.18" x2="318.68" y2="116.4"/><line class="cls-2" x1="434.64" y1="633.32" x2="432.89" y2="625.53"/><line class="cls-2" x1="239.39" y1="592.02" x2="235.13" y2="598.76"/><line class="cls-2" x1="518.19" y1="150.95" x2="513.92" y2="157.7"/><line class="cls-2" x1="159.5" y1="237.59" x2="152.75" y2="233.33"/><line class="cls-2" x1="600.57" y1="516.39" x2="593.82" y2="512.12"/><line class="cls-2" x1="125.98" y1="431.09" x2="118.2" y2="432.84"/><line class="cls-2" x1="635.12" y1="316.88" x2="627.34" y2="318.62"/><line class="cls-2" x1="320.42" y1="124.18" x2="318.68" y2="116.4"/><line class="cls-2" x1="434.64" y1="633.32" x2="432.89" y2="625.53"/><line class="cls-2" x1="182.24" y1="543.1" x2="176.21" y2="548.33"/><line class="cls-2" x1="576.48" y1="201.27" x2="570.45" y2="206.5"/><line class="cls-2" x1="208.05" y1="180.7" x2="202.82" y2="174.67"/><line class="cls-2" x1="549.87" y1="574.93" x2="544.65" y2="568.9"/><line class="cls-2" x1="297.65" y1="130.4" x2="295.2" y2="122.81"/><line class="cls-2" x1="458.12" y1="626.91" x2="455.66" y2="619.32"/><line class="cls-2" x1="259.9" y1="603.7" x2="256.28" y2="610.81"/><line class="cls-2" x1="497.04" y1="138.91" x2="493.42" y2="146.02"/><line class="cls-2" x1="147.82" y1="258.1" x2="140.71" y2="254.47"/><line class="cls-2" x1="612.61" y1="495.24" x2="605.5" y2="491.61"/><line class="cls-2" x1="132.2" y1="453.86" x2="124.61" y2="456.32"/><line class="cls-2" x1="628.71" y1="293.4" x2="621.12" y2="295.85"/><line class="cls-2" x1="297.65" y1="130.4" x2="295.2" y2="122.81"/><line class="cls-2" x1="458.12" y1="626.91" x2="455.66" y2="619.32"/><line class="cls-2" x1="153.52" y1="502.59" x2="146.6" y2="506.56"/><line class="cls-2" x1="606.12" y1="242.93" x2="599.2" y2="246.9"/><line class="cls-2" x1="248.52" y1="151.9" x2="244.55" y2="144.98"/><line class="cls-2" x1="508.18" y1="604.5" x2="504.21" y2="597.58"/><line class="cls-2" x1="346.13" y1="119.77" x2="345.18" y2="111.85"/><line class="cls-2" x1="408.14" y1="637.87" x2="407.19" y2="629.94"/><line class="cls-2" x1="218.08" y1="576.99" x2="213.16" y2="583.26"/><line class="cls-2" x1="540.16" y1="166.45" x2="535.23" y2="172.73"/><line class="cls-2" x1="174.53" y1="216.28" x2="168.25" y2="211.36"/><line class="cls-2" x1="585.06" y1="538.36" x2="578.79" y2="533.43"/><line class="cls-2" x1="121.57" y1="405.39" x2="113.65" y2="406.34"/><line class="cls-2" x1="639.67" y1="343.38" x2="631.74" y2="344.32"/><line class="cls-2" x1="346.13" y1="119.77" x2="345.18" y2="111.85"/><line class="cls-2" x1="408.14" y1="637.87" x2="407.19" y2="629.94"/><line class="cls-2" x1="306.59" y1="622.02" x2="304.41" y2="629.7"/><line class="cls-2" x1="448.91" y1="120.01" x2="446.73" y2="127.69"/><line class="cls-2" x1="129.49" y1="304.79" x2="121.82" y2="302.61"/><line class="cls-2" x1="631.5" y1="447.11" x2="623.82" y2="444.93"/><line class="cls-2" x1="306.59" y1="622.02" x2="304.41" y2="629.7"/><line class="cls-2" x1="448.91" y1="120.01" x2="446.73" y2="127.69"/><line class="cls-2" x1="129.49" y1="304.79" x2="121.82" y2="302.61"/><line class="cls-2" x1="631.5" y1="447.11" x2="623.82" y2="444.93"/><line class="cls-2" x1="358.59" y1="631.13" x2="358.03" y2="639.09"/><line class="cls-2" x1="395.29" y1="110.63" x2="394.73" y2="118.59"/><line class="cls-2" x1="120.39" y1="356.79" x2="112.43" y2="356.23"/><line class="cls-2" x1="640.89" y1="393.49" x2="632.93" y2="392.93"/><line class="cls-2" x1="358.59" y1="631.13" x2="358.03" y2="639.09"/><line class="cls-2" x1="395.29" y1="110.63" x2="394.73" y2="118.59"/><line class="cls-2" x1="120.39" y1="356.79" x2="112.43" y2="356.23"/><line class="cls-2" x1="640.89" y1="393.49" x2="632.93" y2="392.93"/><line class="cls-2" x1="332.06" y1="627.86" x2="330.68" y2="635.72"/><line class="cls-2" x1="422.64" y1="113.99" x2="421.25" y2="121.85"/><line class="cls-2" x1="123.65" y1="330.26" x2="115.79" y2="328.88"/><line class="cls-2" x1="637.52" y1="420.84" x2="629.67" y2="419.45"/><line class="cls-2" x1="332.06" y1="627.86" x2="330.68" y2="635.72"/><line class="cls-2" x1="422.64" y1="113.99" x2="421.25" y2="121.85"/><line class="cls-2" x1="123.65" y1="330.26" x2="115.79" y2="328.88"/><line class="cls-2" x1="637.52" y1="420.84" x2="629.67" y2="419.45"/><line class="cls-2" x1="120.51" y1="381.59" x2="112.53" y2="381.8"/><line class="cls-2" x1="642.12" y1="367.81" x2="634.14" y2="368.02"/><line class="cls-2" x1="370.54" y1="117.99" x2="370.33" y2="110.01"/><line class="cls-2" x1="384.32" y1="639.6" x2="384.11" y2="631.62"/><line class="cls-2" x1="190.72" y1="552.4" x2="184.96" y2="557.91"/><line class="cls-2" x1="567.73" y1="191.65" x2="561.96" y2="197.17"/><line class="cls-2" x1="198.73" y1="189.16" x2="193.21" y2="183.4"/><line class="cls-2" x1="559.47" y1="566.17" x2="553.96" y2="560.4"/><line class="cls-2" x1="285.76" y1="134.53" x2="282.94" y2="127.07"/><line class="cls-2" x1="470.37" y1="622.58" x2="467.55" y2="615.11"/><line class="cls-2" x1="271.26" y1="609.12" x2="267.99" y2="616.39"/><line class="cls-2" x1="485.33" y1="133.26" x2="482.05" y2="140.53"/><line class="cls-2" x1="142.37" y1="269.43" x2="135.09" y2="266.15"/><line class="cls-2" x1="618.23" y1="483.5" x2="610.95" y2="480.22"/><line class="cls-2" x1="136.37" y1="465.72" x2="128.9" y2="468.54"/><line class="cls-2" x1="624.41" y1="281.11" x2="616.95" y2="283.93"/><line class="cls-2" x1="285.76" y1="134.53" x2="282.94" y2="127.07"/><line class="cls-2" x1="470.37" y1="622.58" x2="467.55" y2="615.11"/><line class="cls-2" x1="160.47" y1="513.99" x2="153.77" y2="518.32"/><line class="cls-2" x1="598.94" y1="231.13" x2="592.24" y2="235.46"/><line class="cls-2" x1="237.09" y1="158.84" x2="232.76" y2="152.14"/><line class="cls-2" x1="519.95" y1="597.31" x2="515.62" y2="590.61"/><line class="cls-2" x1="332.89" y1="121.67" x2="331.53" y2="113.81"/><line class="cls-2" x1="421.78" y1="635.84" x2="420.42" y2="627.98"/><line class="cls-2" x1="228.82" y1="584.93" x2="224.22" y2="591.46"/><line class="cls-2" x1="529.09" y1="158.19" x2="524.5" y2="164.72"/><line class="cls-2" x1="166.55" y1="226.98" x2="160.03" y2="222.39"/><line class="cls-2" x1="593.29" y1="527.26" x2="586.76" y2="522.67"/><line class="cls-2" x1="123.51" y1="418.59" x2="115.64" y2="419.95"/><line class="cls-2" x1="637.67" y1="329.7" x2="629.81" y2="331.06"/><line class="cls-2" x1="332.89" y1="121.67" x2="331.53" y2="113.81"/><line class="cls-2" x1="421.78" y1="635.84" x2="420.42" y2="627.98"/><line class="cls-2" x1="174.16" y1="533.25" x2="167.88" y2="538.17"/><line class="cls-2" x1="584.82" y1="211.34" x2="578.54" y2="216.26"/><line class="cls-2" x1="217.86" y1="172.56" x2="212.93" y2="166.28"/><line class="cls-2" x1="539.76" y1="583.22" x2="534.84" y2="576.94"/><line class="cls-2" x1="309.84" y1="126.76" x2="307.77" y2="119.05"/><line class="cls-2" x1="445.55" y1="630.6" x2="443.47" y2="622.89"/><line class="cls-2" x1="248.72" y1="597.61" x2="244.75" y2="604.53"/><line class="cls-2" x1="508.56" y1="145.12" x2="504.59" y2="152.04"/><line class="cls-2" x1="153.87" y1="246.89" x2="146.95" y2="242.92"/><line class="cls-2" x1="606.36" y1="506.73" x2="599.44" y2="502.76"/><line class="cls-2" x1="128.59" y1="441.64" x2="120.89" y2="443.72"/><line class="cls-2" x1="632.43" y1="305.93" x2="624.72" y2="308.01"/><line class="cls-2" x1="309.84" y1="126.76" x2="307.77" y2="119.05"/><line class="cls-2" x1="445.55" y1="630.6" x2="443.47" y2="622.89"/><line class="cls-2" x1="271.26" y1="609.12" x2="267.99" y2="616.39"/><line class="cls-2" x1="485.33" y1="133.26" x2="482.05" y2="140.53"/><line class="cls-2" x1="142.37" y1="269.43" x2="135.09" y2="266.15"/><line class="cls-2" x1="618.23" y1="483.5" x2="610.95" y2="480.22"/><line class="cls-2" x1="160.47" y1="513.99" x2="153.77" y2="518.32"/><line class="cls-2" x1="598.94" y1="231.13" x2="592.24" y2="235.46"/><line class="cls-2" x1="237.09" y1="158.84" x2="232.76" y2="152.14"/><line class="cls-2" x1="519.95" y1="597.31" x2="515.62" y2="590.61"/><line class="cls-2" x1="332.89" y1="121.67" x2="331.53" y2="113.81"/><line class="cls-2" x1="421.78" y1="635.84" x2="420.42" y2="627.98"/><line class="cls-2" x1="228.82" y1="584.93" x2="224.22" y2="591.46"/><line class="cls-2" x1="529.09" y1="158.19" x2="524.5" y2="164.72"/><line class="cls-2" x1="166.55" y1="226.98" x2="160.03" y2="222.39"/><line class="cls-2" x1="593.29" y1="527.26" x2="586.76" y2="522.67"/><line class="cls-2" x1="123.51" y1="418.59" x2="115.64" y2="419.95"/><line class="cls-2" x1="637.67" y1="329.7" x2="629.81" y2="331.06"/><line class="cls-2" x1="332.89" y1="121.67" x2="331.53" y2="113.81"/><line class="cls-2" x1="421.78" y1="635.84" x2="420.42" y2="627.98"/><line class="cls-2" x1="174.16" y1="533.25" x2="167.88" y2="538.17"/><line class="cls-2" x1="584.82" y1="211.34" x2="578.54" y2="216.26"/><line class="cls-2" x1="217.86" y1="172.56" x2="212.93" y2="166.28"/><line class="cls-2" x1="539.76" y1="583.22" x2="534.84" y2="576.94"/><line class="cls-2" x1="309.84" y1="126.76" x2="307.77" y2="119.05"/><line class="cls-2" x1="445.55" y1="630.6" x2="443.47" y2="622.89"/><line class="cls-2" x1="248.72" y1="597.61" x2="244.75" y2="604.53"/><line class="cls-2" x1="508.56" y1="145.12" x2="504.59" y2="152.04"/><line class="cls-2" x1="153.87" y1="246.89" x2="146.95" y2="242.92"/><line class="cls-2" x1="606.36" y1="506.73" x2="599.44" y2="502.76"/><line class="cls-2" x1="128.59" y1="441.64" x2="120.89" y2="443.72"/><line class="cls-2" x1="632.43" y1="305.93" x2="624.72" y2="308.01"/><line class="cls-2" x1="309.84" y1="126.76" x2="307.77" y2="119.05"/><line class="cls-2" x1="445.55" y1="630.6" x2="443.47" y2="622.89"/><line class="cls-2" x1="147.48" y1="491.36" x2="140.37" y2="494.98"/><line class="cls-2" x1="612.37" y1="254.41" x2="605.26" y2="258.03"/><line class="cls-2" x1="259.7" y1="145.8" x2="256.08" y2="138.7"/><line class="cls-2" x1="496.65" y1="610.69" x2="493.03" y2="603.58"/><line class="cls-2" x1="358.78" y1="118.54" x2="358.22" y2="110.58"/><line class="cls-2" x1="395.09" y1="639.07" x2="394.53" y2="631.11"/><line class="cls-2" x1="208.28" y1="568.86" x2="203.05" y2="574.89"/><line class="cls-2" x1="550.27" y1="174.76" x2="545.04" y2="180.79"/><line class="cls-2" x1="182.62" y1="206.45" x2="176.59" y2="201.22"/><line class="cls-2" x1="576.72" y1="548.43" x2="570.69" y2="543.2"/><line class="cls-2" x1="120.37" y1="392.7" x2="112.41" y2="393.26"/><line class="cls-2" x1="640.9" y1="356.39" x2="632.94" y2="356.95"/><line class="cls-2" x1="358.78" y1="118.54" x2="358.22" y2="110.58"/><line class="cls-2" x1="395.09" y1="639.07" x2="394.53" y2="631.11"/><line class="cls-2" x1="294.44" y1="618.22" x2="291.89" y2="625.78"/><line class="cls-2" x1="461.42" y1="123.87" x2="458.87" y2="131.43"/><line class="cls-2" x1="133.26" y1="292.61" x2="125.7" y2="290.06"/><line class="cls-2" x1="627.61" y1="459.59" x2="620.05" y2="457.04"/><line class="cls-2" x1="294.44" y1="618.22" x2="291.89" y2="625.78"/><line class="cls-2" x1="461.42" y1="123.87" x2="458.87" y2="131.43"/><line class="cls-2" x1="133.26" y1="292.61" x2="125.7" y2="290.06"/><line class="cls-2" x1="627.61" y1="459.59" x2="620.05" y2="457.04"/><line class="cls-2" x1="345.94" y1="629.89" x2="344.98" y2="637.81"/><line class="cls-2" x1="408.33" y1="111.84" x2="407.38" y2="119.76"/><line class="cls-2" x1="121.59" y1="344.1" x2="113.67" y2="343.15"/><line class="cls-2" x1="639.64" y1="406.5" x2="631.72" y2="405.55"/><line class="cls-2" x1="345.94" y1="629.89" x2="344.98" y2="637.81"/><line class="cls-2" x1="408.33" y1="111.84" x2="407.38" y2="119.76"/><line class="cls-2" x1="121.59" y1="344.1" x2="113.67" y2="343.15"/><line class="cls-2" x1="639.64" y1="406.5" x2="631.72" y2="405.55"/><line class="cls-2" x1="319.6" y1="625.32" x2="317.83" y2="633.1"/><line class="cls-2" x1="435.49" y1="116.55" x2="433.71" y2="124.33"/><line class="cls-2" x1="126.17" y1="317.77" x2="118.39" y2="316"/><line class="cls-2" x1="634.93" y1="433.65" x2="627.15" y2="431.88"/><line class="cls-2" x1="319.6" y1="625.32" x2="317.83" y2="633.1"/><line class="cls-2" x1="435.49" y1="116.55" x2="433.71" y2="124.33"/><line class="cls-2" x1="126.17" y1="317.77" x2="118.39" y2="316"/><line class="cls-2" x1="634.93" y1="433.65" x2="627.15" y2="431.88"/><line class="cls-2" x1="120.49" y1="368.88" x2="112.51" y2="368.7"/><line class="cls-2" x1="642.14" y1="380.92" x2="634.16" y2="380.73"/><line class="cls-2" x1="383.25" y1="117.97" x2="383.44" y2="109.99"/><line class="cls-2" x1="371.22" y1="639.62" x2="371.4" y2="631.64"/><line class="cls-2" x1="120.42" y1="374.81" x2="112.44" y2="374.81"/><line class="cls-2" x1="642.21" y1="374.81" x2="634.23" y2="374.81"/><line class="cls-2" x1="377.33" y1="117.9" x2="377.33" y2="109.92"/><line class="cls-2" x1="377.33" y1="639.69" x2="377.33" y2="631.71"/><circle class="cls-3" cx="377.14" cy="374.81" r="197.97"/></g></svg>