<svg xmlns="http://www.w3.org/2000/svg" viewBox="0 0 754 754"><defs><style>.cls-1{fill:none;stroke:#41cca0;stroke-miterlimit:10;}</style></defs><g id="레이어_3" data-name="레이어 3"><line class="cls-1" x1="259.49" y1="377" x2="255.84" y2="377"/><line class="cls-1" x1="498.33" y1="377" x2="494.68" y2="377"/><line class="cls-1" x1="377.09" y1="494.59" x2="377.09" y2="498.25"/><line class="cls-1" x1="377.09" y1="255.75" x2="377.09" y2="259.41"/><line class="cls-1" x1="293.94" y1="293.85" x2="291.35" y2="291.27"/><line class="cls-1" x1="462.82" y1="462.73" x2="460.24" y2="460.15"/><line class="cls-1" x1="293.94" y1="460.15" x2="291.35" y2="462.73"/><line class="cls-1" x1="462.82" y1="291.27" x2="460.24" y2="293.85"/><line class="cls-1" x1="331.53" y1="485.41" x2="330.11" y2="488.78"/><line class="cls-1" x1="424.06" y1="265.22" x2="422.65" y2="268.59"/><line class="cls-1" x1="485.5" y1="422.56" x2="488.86" y2="423.98"/><line class="cls-1" x1="265.31" y1="330.02" x2="268.68" y2="331.44"/><line class="cls-1" x1="268.21" y1="421.44" x2="264.83" y2="422.82"/><line class="cls-1" x1="489.34" y1="331.18" x2="485.96" y2="332.56"/><line class="cls-1" x1="421.53" y1="485.87" x2="422.91" y2="489.25"/><line class="cls-1" x1="331.27" y1="264.75" x2="332.65" y2="268.13"/><line class="cls-1" x1="262" y1="401.15" x2="258.42" y2="401.9"/><line class="cls-1" x1="495.75" y1="352.1" x2="492.17" y2="352.85"/><line class="cls-1" x1="401.23" y1="492.09" x2="401.98" y2="495.66"/><line class="cls-1" x1="352.19" y1="258.34" x2="352.94" y2="261.91"/><line class="cls-1" x1="278.63" y1="312.69" x2="275.58" y2="310.7"/><line class="cls-1" x1="478.6" y1="443.3" x2="475.54" y2="441.31"/><line class="cls-1" x1="312.78" y1="475.45" x2="310.78" y2="478.51"/><line class="cls-1" x1="443.39" y1="275.49" x2="441.39" y2="278.55"/><line class="cls-1" x1="354.76" y1="492.45" x2="354.06" y2="496.04"/><line class="cls-1" x1="400.11" y1="257.96" x2="399.42" y2="261.55"/><line class="cls-1" x1="492.54" y1="399.33" x2="496.13" y2="400.02"/><line class="cls-1" x1="258.05" y1="353.98" x2="261.63" y2="354.67"/><line class="cls-1" x1="279.66" y1="442.85" x2="276.63" y2="444.89"/><line class="cls-1" x1="477.54" y1="309.11" x2="474.51" y2="311.15"/><line class="cls-1" x1="442.94" y1="474.43" x2="444.98" y2="477.45"/><line class="cls-1" x1="309.19" y1="276.55" x2="311.24" y2="279.57"/><line class="cls-1" x1="264.74" y1="411.74" x2="261.25" y2="412.82"/><line class="cls-1" x1="492.92" y1="341.18" x2="489.43" y2="342.26"/><line class="cls-1" x1="411.83" y1="489.34" x2="412.91" y2="492.83"/><line class="cls-1" x1="341.27" y1="261.17" x2="342.34" y2="264.66"/><line class="cls-1" x1="273.08" y1="322.13" x2="269.85" y2="320.42"/><line class="cls-1" x1="484.32" y1="433.58" x2="481.09" y2="431.87"/><line class="cls-1" x1="322.21" y1="481.01" x2="320.51" y2="484.24"/><line class="cls-1" x1="433.66" y1="269.76" x2="431.96" y2="272.99"/><line class="cls-1" x1="365.59" y1="494.03" x2="365.23" y2="497.67"/><line class="cls-1" x1="388.94" y1="256.33" x2="388.58" y2="259.97"/><line class="cls-1" x1="494.12" y1="388.5" x2="497.75" y2="388.85"/><line class="cls-1" x1="256.42" y1="365.15" x2="260.06" y2="365.5"/><line class="cls-1" x1="286.2" y1="451.62" x2="283.38" y2="453.94"/><line class="cls-1" x1="470.79" y1="300.06" x2="467.97" y2="302.38"/><line class="cls-1" x1="451.71" y1="467.88" x2="454.03" y2="470.71"/><line class="cls-1" x1="300.15" y1="283.29" x2="302.46" y2="286.12"/><line class="cls-1" x1="274.27" y1="434.07" x2="271.08" y2="435.84"/><line class="cls-1" x1="483.1" y1="318.16" x2="479.9" y2="319.93"/><line class="cls-1" x1="434.16" y1="479.82" x2="435.93" y2="483.01"/><line class="cls-1" x1="318.24" y1="270.99" x2="320.02" y2="274.18"/><line class="cls-1" x1="264.03" y1="344.65" x2="260.52" y2="343.65"/><line class="cls-1" x1="493.66" y1="410.35" x2="490.14" y2="409.35"/><line class="cls-1" x1="344.74" y1="490.06" x2="343.74" y2="493.57"/><line class="cls-1" x1="410.44" y1="260.43" x2="409.43" y2="263.94"/><line class="cls-1" x1="389.86" y1="493.9" x2="390.26" y2="497.53"/><line class="cls-1" x1="363.91" y1="256.47" x2="364.31" y2="260.1"/><line class="cls-1" x1="493.98" y1="364.22" x2="497.62" y2="363.83"/><line class="cls-1" x1="256.56" y1="390.17" x2="260.19" y2="389.78"/><line class="cls-1" x1="303.46" y1="468.69" x2="301.18" y2="471.54"/><line class="cls-1" x1="453" y1="282.46" x2="450.71" y2="285.31"/><line class="cls-1" x1="468.78" y1="450.62" x2="471.63" y2="452.91"/><line class="cls-1" x1="282.54" y1="301.09" x2="285.39" y2="303.38"/></g></svg>